<?xml version="1.0" encoding="utf-8" standalone="no"?>
<!DOCTYPE svg PUBLIC "-//W3C//DTD SVG 1.1//EN"
  "http://www.w3.org/Graphics/SVG/1.1/DTD/svg11.dtd">
<svg xmlns:xlink="http://www.w3.org/1999/xlink" width="1152pt" height="648pt" viewBox="0 0 1152 648" xmlns="http://www.w3.org/2000/svg" version="1.1">
 <metadata>
  <rdf:RDF xmlns:dc="http://purl.org/dc/elements/1.1/" xmlns:cc="http://creativecommons.org/ns#" xmlns:rdf="http://www.w3.org/1999/02/22-rdf-syntax-ns#">
   <cc:Work>
    <dc:type rdf:resource="http://purl.org/dc/dcmitype/StillImage"/>
    <dc:date>2023-02-27T05:55:32.974453</dc:date>
    <dc:format>image/svg+xml</dc:format>
    <dc:creator>
     <cc:Agent>
      <dc:title>Matplotlib v3.6.3, https://matplotlib.org/</dc:title>
     </cc:Agent>
    </dc:creator>
   </cc:Work>
  </rdf:RDF>
 </metadata>
 <defs>
  <style type="text/css">*{stroke-linejoin: round; stroke-linecap: butt}</style>
 </defs>
 <g id="figure_1">
  <g id="patch_1">
   <path d="M 0 648 
L 1152 648 
L 1152 0 
L 0 0 
z
"/>
  </g>
  <g id="axes_1">
   <g id="line2d_1">
    <defs>
     <path id="m743f5b1fb2" d="M 0 3.5 
C 0.928211 3.5 1.81853 3.131218 2.474874 2.474874 
C 3.131218 1.81853 3.5 0.928211 3.5 0 
C 3.5 -0.928211 3.131218 -1.81853 2.474874 -2.474874 
C 1.81853 -3.131218 0.928211 -3.5 0 -3.5 
C -0.928211 -3.5 -1.81853 -3.131218 -2.474874 -2.474874 
C -3.131218 -1.81853 -3.5 -0.928211 -3.5 0 
C -3.5 0.928211 -3.131218 1.81853 -2.474874 2.474874 
C -1.81853 3.131218 -0.928211 3.5 0 3.5 
z
" style="stroke: #ffffff; stroke-opacity: 0.4"/>
    </defs>
    <g clip-path="url(#p1a16833b88)">
     <use xlink:href="#m743f5b1fb2" x="540.011515" y="275.450909" style="fill: #ffffff; fill-opacity: 0.4; stroke: #ffffff; stroke-opacity: 0.4"/>
    </g>
   </g>
   <g id="line2d_2">
    <g clip-path="url(#p1a16833b88)">
     <use xlink:href="#m743f5b1fb2" x="626.908485" y="275.450909" style="fill: #ffffff; fill-opacity: 0.4; stroke: #ffffff; stroke-opacity: 0.4"/>
    </g>
   </g>
   <g id="patch_2">
    <path d="M 540.011515 362.347879 
C 563.056861 362.347879 585.161431 353.191866 601.456952 336.896346 
C 617.752472 320.600825 626.908485 298.496255 626.908485 275.450909 
C 626.908485 252.405563 617.752472 230.300993 601.456952 214.005473 
C 585.161431 197.709952 563.056861 188.553939 540.011515 188.553939 
C 516.966169 188.553939 494.861599 197.709952 478.566079 214.005473 
C 462.270558 230.300993 453.114545 252.405563 453.114545 275.450909 
C 453.114545 298.496255 462.270558 320.600825 478.566079 336.896346 
C 494.861599 353.191866 516.966169 362.347879 540.011515 362.347879 
L 540.011515 362.347879 
z
" clip-path="url(#p1a16833b88)" style="fill: none; stroke-dasharray: 1.5,2.475; stroke-dashoffset: 0; stroke: #cc0099; stroke-width: 1.5; stroke-linejoin: miter"/>
   </g>
   <g id="patch_3">
    <path d="M 626.908485 362.347879 
C 649.953831 362.347879 672.058401 353.191866 688.353921 336.896346 
C 704.649442 320.600825 713.805455 298.496255 713.805455 275.450909 
C 713.805455 252.405563 704.649442 230.300993 688.353921 214.005473 
C 672.058401 197.709952 649.953831 188.553939 626.908485 188.553939 
C 603.863139 188.553939 581.758569 197.709952 565.463048 214.005473 
C 549.167528 230.300993 540.011515 252.405563 540.011515 275.450909 
C 540.011515 298.496255 549.167528 320.600825 565.463048 336.896346 
C 581.758569 353.191866 603.863139 362.347879 626.908485 362.347879 
L 626.908485 362.347879 
z
" clip-path="url(#p1a16833b88)" style="fill: none; stroke-dasharray: 1.5,2.475; stroke-dashoffset: 0; stroke: #cc0099; stroke-width: 1.5; stroke-linejoin: miter"/>
   </g>
   <g id="patch_4">
    <path d="M 540.011515 275.450909 
L 626.908485 275.450909 
L 583.46 350.705892 
z
" clip-path="url(#p1a16833b88)" style="fill: #3366cc; fill-opacity: 0.2; stroke: #3366cc; stroke-opacity: 0.6; stroke-linejoin: miter"/>
   </g>
   <g id="patch_5">
    <path d="M 540.011515 275.450909 
L 626.908485 275.450909 
L 583.46 200.195926 
z
" clip-path="url(#p1a16833b88)" style="fill: #3366cc; fill-opacity: 0.2; stroke: #3366cc; stroke-opacity: 0.6; stroke-linejoin: miter"/>
   </g>
   <g id="patch_6">
    <path d="M 540.011515 449.244848 
C 586.102207 449.244848 630.311348 430.932823 662.902388 398.341782 
C 695.493429 365.750742 713.805455 321.541601 713.805455 275.450909 
C 713.805455 229.360218 695.493429 185.151077 662.902388 152.560036 
C 630.311348 119.968996 586.102207 101.65697 540.011515 101.65697 
C 493.920824 101.65697 449.711683 119.968996 417.120642 152.560036 
C 384.529602 185.151077 366.217576 229.360218 366.217576 275.450909 
C 366.217576 321.541601 384.529602 365.750742 417.120642 398.341782 
C 449.711683 430.932823 493.920824 449.244848 540.011515 449.244848 
L 540.011515 449.244848 
z
" clip-path="url(#p1a16833b88)" style="fill: none; stroke-dasharray: 1.5,2.475; stroke-dashoffset: 0; stroke: #cc0099; stroke-width: 1.5; stroke-linejoin: miter"/>
   </g>
   <g id="patch_7">
    <path d="M 540.011515 449.244848 
C 586.102207 449.244848 630.311348 430.932823 662.902388 398.341782 
C 695.493429 365.750742 713.805455 321.541601 713.805455 275.450909 
C 713.805455 229.360218 695.493429 185.151077 662.902388 152.560036 
C 630.311348 119.968996 586.102207 101.65697 540.011515 101.65697 
C 493.920824 101.65697 449.711683 119.968996 417.120642 152.560036 
C 384.529602 185.151077 366.217576 229.360218 366.217576 275.450909 
C 366.217576 321.541601 384.529602 365.750742 417.120642 398.341782 
C 449.711683 430.932823 493.920824 449.244848 540.011515 449.244848 
L 540.011515 449.244848 
z
" clip-path="url(#p1a16833b88)" style="fill: none; stroke: #cc0099; stroke-width: 1.5; stroke-linejoin: miter"/>
   </g>
   <g id="line2d_3">
    <path d="M 322.769091 275.450909 
L 844.150909 275.450909 
" clip-path="url(#p1a16833b88)" style="fill: none; stroke-dasharray: 1.5,2.475; stroke-dashoffset: 0; stroke: #999999; stroke-width: 1.5"/>
   </g>
   <g id="line2d_4">
    <path d="M 583.46 536.141818 
L 583.46 14.76 
" clip-path="url(#p1a16833b88)" style="fill: none; stroke-dasharray: 1.5,2.475; stroke-dashoffset: 0; stroke: #999999; stroke-width: 1.5"/>
   </g>
   <g id="line2d_5">
    <defs>
     <path id="m29aa020ff8" d="M 0 7.5 
C 1.989023 7.5 3.896849 6.709753 5.303301 5.303301 
C 6.709753 3.896849 7.5 1.989023 7.5 0 
C 7.5 -1.989023 6.709753 -3.896849 5.303301 -5.303301 
C 3.896849 -6.709753 1.989023 -7.5 0 -7.5 
C -1.989023 -7.5 -3.896849 -6.709753 -5.303301 -5.303301 
C -6.709753 -3.896849 -7.5 -1.989023 -7.5 0 
C -7.5 1.989023 -6.709753 3.896849 -5.303301 5.303301 
C -3.896849 6.709753 -1.989023 7.5 0 7.5 
z
" style="stroke: #ffff00; stroke-opacity: 0.6"/>
    </defs>
    <g clip-path="url(#p1a16833b88)">
     <use xlink:href="#m29aa020ff8" x="583.46" y="443.726167" style="fill-opacity: 0; stroke: #ffff00; stroke-opacity: 0.6"/>
    </g>
   </g>
   <g id="line2d_6">
    <path d="M 583.46 536.141818 
L 583.46 14.76 
" clip-path="url(#p1a16833b88)" style="fill: none; stroke: #999999; stroke-width: 1.5; stroke-linecap: square"/>
   </g>
   <g id="line2d_7">
    <defs>
     <path id="m91a5dd87ad" d="M 0 2 
C 0.530406 2 1.03916 1.789267 1.414214 1.414214 
C 1.789267 1.03916 2 0.530406 2 0 
C 2 -0.530406 1.789267 -1.03916 1.414214 -1.414214 
C 1.03916 -1.789267 0.530406 -2 0 -2 
C -0.530406 -2 -1.03916 -1.789267 -1.414214 -1.414214 
C -1.789267 -1.03916 -2 -0.530406 -2 0 
C -2 0.530406 -1.789267 1.03916 -1.414214 1.414214 
C -1.03916 1.789267 -0.530406 2 0 2 
z
" style="stroke: #000000"/>
    </defs>
    <g clip-path="url(#p1a16833b88)">
     <use xlink:href="#m91a5dd87ad" x="540.011515" y="275.450909" style="stroke: #000000"/>
    </g>
   </g>
   <g id="line2d_8">
    <g clip-path="url(#p1a16833b88)">
     <use xlink:href="#m91a5dd87ad" x="626.908485" y="275.450909" style="stroke: #000000"/>
    </g>
   </g>
   <g id="line2d_9">
    <g clip-path="url(#p1a16833b88)">
     <use xlink:href="#m91a5dd87ad" x="453.114545" y="275.450909" style="stroke: #000000"/>
    </g>
   </g>
   <g id="line2d_10">
    <g clip-path="url(#p1a16833b88)">
     <use xlink:href="#m91a5dd87ad" x="713.805455" y="275.450909" style="stroke: #000000"/>
    </g>
   </g>
   <g id="line2d_11">
    <g clip-path="url(#p1a16833b88)">
     <use xlink:href="#m91a5dd87ad" x="583.46" y="350.705892" style="stroke: #000000"/>
    </g>
   </g>
   <g id="line2d_12">
    <g clip-path="url(#p1a16833b88)">
     <use xlink:href="#m91a5dd87ad" x="583.46" y="200.195926" style="stroke: #000000"/>
    </g>
   </g>
   <g id="line2d_13">
    <g clip-path="url(#p1a16833b88)">
     <use xlink:href="#m91a5dd87ad" x="583.46" y="275.450909" style="stroke: #000000"/>
    </g>
   </g>
   <g id="line2d_14">
    <g clip-path="url(#p1a16833b88)">
     <use xlink:href="#m91a5dd87ad" x="366.217576" y="275.450909" style="stroke: #000000"/>
    </g>
   </g>
   <g id="line2d_15">
    <g clip-path="url(#p1a16833b88)">
     <use xlink:href="#m91a5dd87ad" x="583.46" y="443.726167" style="stroke: #000000"/>
    </g>
   </g>
   <g id="line2d_16">
    <defs>
     <path id="m654c9cf60b" d="M 0 1.25 
C 0.331504 1.25 0.649475 1.118292 0.883883 0.883883 
C 1.118292 0.649475 1.25 0.331504 1.25 0 
C 1.25 -0.331504 1.118292 -0.649475 0.883883 -0.883883 
C 0.649475 -1.118292 0.331504 -1.25 0 -1.25 
C -0.331504 -1.25 -0.649475 -1.118292 -0.883883 -0.883883 
C -1.118292 -0.649475 -1.25 -0.331504 -1.25 0 
C -1.25 0.331504 -1.118292 0.649475 -0.883883 0.883883 
C -0.649475 1.118292 -0.331504 1.25 0 1.25 
z
" style="stroke: #ffffff"/>
    </defs>
    <g clip-path="url(#p1a16833b88)">
     <use xlink:href="#m654c9cf60b" x="540.011515" y="275.450909" style="fill: #ffffff; stroke: #ffffff"/>
    </g>
   </g>
   <g id="line2d_17">
    <g clip-path="url(#p1a16833b88)">
     <use xlink:href="#m654c9cf60b" x="626.908485" y="275.450909" style="fill: #ffffff; stroke: #ffffff"/>
    </g>
   </g>
   <g id="line2d_18">
    <g clip-path="url(#p1a16833b88)">
     <use xlink:href="#m654c9cf60b" x="453.114545" y="275.450909" style="fill: #ffffff; stroke: #ffffff"/>
    </g>
   </g>
   <g id="line2d_19">
    <g clip-path="url(#p1a16833b88)">
     <use xlink:href="#m654c9cf60b" x="713.805455" y="275.450909" style="fill: #ffffff; stroke: #ffffff"/>
    </g>
   </g>
   <g id="line2d_20">
    <g clip-path="url(#p1a16833b88)">
     <use xlink:href="#m654c9cf60b" x="583.46" y="350.705892" style="fill: #ffffff; stroke: #ffffff"/>
    </g>
   </g>
   <g id="line2d_21">
    <g clip-path="url(#p1a16833b88)">
     <use xlink:href="#m654c9cf60b" x="583.46" y="200.195926" style="fill: #ffffff; stroke: #ffffff"/>
    </g>
   </g>
   <g id="line2d_22">
    <g clip-path="url(#p1a16833b88)">
     <use xlink:href="#m654c9cf60b" x="583.46" y="275.450909" style="fill: #ffffff; stroke: #ffffff"/>
    </g>
   </g>
   <g id="line2d_23">
    <g clip-path="url(#p1a16833b88)">
     <use xlink:href="#m654c9cf60b" x="366.217576" y="275.450909" style="fill: #ffffff; stroke: #ffffff"/>
    </g>
   </g>
   <g id="line2d_24">
    <g clip-path="url(#p1a16833b88)">
     <use xlink:href="#m654c9cf60b" x="583.46" y="443.726167" style="fill: #ffffff; stroke: #ffffff"/>
    </g>
   </g>
  </g>
  <g id="axes_2">
   <g id="text_1">
    <!-- $\left[ \ \frac{1}{2}, \ - \frac{\sqrt{15}}{2} \ \right]$ -->
    <g style="fill: #ffffff" transform="translate(526.36 602.250909) scale(0.2 -0.2)">
     <defs>
      <path id="STIXSizeTwoSym-Regular-5b" d="M 2701 -1786 
L 1216 -1786 
L 1216 10022 
L 2701 10022 
L 2701 9766 
L 1702 9766 
L 1702 -1530 
L 2701 -1530 
L 2701 -1786 
z
" transform="scale(0.015625)"/>
      <path id="DejaVuSans-31" d="M 794 531 
L 1825 531 
L 1825 4091 
L 703 3866 
L 703 4441 
L 1819 4666 
L 2450 4666 
L 2450 531 
L 3481 531 
L 3481 0 
L 794 0 
L 794 531 
z
" transform="scale(0.015625)"/>
      <path id="DejaVuSans-32" d="M 1228 531 
L 3431 531 
L 3431 0 
L 469 0 
L 469 531 
Q 828 903 1448 1529 
Q 2069 2156 2228 2338 
Q 2531 2678 2651 2914 
Q 2772 3150 2772 3378 
Q 2772 3750 2511 3984 
Q 2250 4219 1831 4219 
Q 1534 4219 1204 4116 
Q 875 4013 500 3803 
L 500 4441 
Q 881 4594 1212 4672 
Q 1544 4750 1819 4750 
Q 2544 4750 2975 4387 
Q 3406 4025 3406 3419 
Q 3406 3131 3298 2873 
Q 3191 2616 2906 2266 
Q 2828 2175 2409 1742 
Q 1991 1309 1228 531 
z
" transform="scale(0.015625)"/>
      <path id="DejaVuSans-2c" d="M 750 794 
L 1409 794 
L 1409 256 
L 897 -744 
L 494 -744 
L 750 256 
L 750 794 
z
" transform="scale(0.015625)"/>
      <path id="DejaVuSans-2212" d="M 678 2272 
L 4684 2272 
L 4684 1741 
L 678 1741 
L 678 2272 
z
" transform="scale(0.015625)"/>
      <path id="STIXSizeOneSym-Regular-221a" d="M 6970 9933 
L 3373 -1888 
L 3104 -1888 
L 1626 2918 
Q 1555 3149 1465 3251 
Q 1376 3354 1229 3354 
Q 1011 3354 794 3181 
L 717 3309 
L 1766 4115 
L 1926 4115 
L 3379 -602 
L 3405 -602 
L 6605 9933 
L 6970 9933 
z
" transform="scale(0.015625)"/>
      <path id="DejaVuSans-35" d="M 691 4666 
L 3169 4666 
L 3169 4134 
L 1269 4134 
L 1269 2991 
Q 1406 3038 1543 3061 
Q 1681 3084 1819 3084 
Q 2600 3084 3056 2656 
Q 3513 2228 3513 1497 
Q 3513 744 3044 326 
Q 2575 -91 1722 -91 
Q 1428 -91 1123 -41 
Q 819 9 494 109 
L 494 744 
Q 775 591 1075 516 
Q 1375 441 1709 441 
Q 2250 441 2565 725 
Q 2881 1009 2881 1497 
Q 2881 1984 2565 2268 
Q 2250 2553 1709 2553 
Q 1456 2553 1204 2497 
Q 953 2441 691 2322 
L 691 4666 
z
" transform="scale(0.015625)"/>
      <path id="STIXSizeTwoSym-Regular-5d" d="M 1722 -1786 
L 237 -1786 
L 237 -1530 
L 1235 -1530 
L 1235 9766 
L 237 9766 
L 237 10022 
L 1722 10022 
L 1722 -1786 
z
" transform="scale(0.015625)"/>
     </defs>
     <use xlink:href="#STIXSizeTwoSym-Regular-5b" transform="translate(0 -14.834375) scale(0.873171)"/>
     <use xlink:href="#DejaVuSans-31" transform="translate(72.575496 44.103125) scale(0.7)"/>
     <use xlink:href="#DejaVuSans-32" transform="translate(72.575496 -39.1) scale(0.7)"/>
     <use xlink:href="#DejaVuSans-2c" transform="translate(129.611629 0.30625)"/>
     <use xlink:href="#DejaVuSans-2212" transform="translate(232.833961 0.30625)"/>
     <use xlink:href="#STIXSizeOneSym-Regular-221a" transform="translate(336.105445 55.871875) scale(0.400127)"/>
     <use xlink:href="#DejaVuSans-31" transform="translate(387.122228 45.590625) scale(0.7)"/>
     <use xlink:href="#DejaVuSans-35" transform="translate(431.658361 45.590625) scale(0.7)"/>
     <use xlink:href="#DejaVuSans-32" transform="translate(388.105445 -39.1) scale(0.7)"/>
     <use xlink:href="#STIXSizeTwoSym-Regular-5d" transform="translate(529.914872 -14.834375) scale(0.873171)"/>
     <path d="M 72.575496 19.103125 
L 72.575496 25.353125 
L 117.111629 25.353125 
L 117.111629 19.103125 
L 72.575496 19.103125 
z
"/>
     <path d="M 378.372228 113.25 
L 378.372228 117.625 
L 484.944494 117.625 
L 484.944494 113.25 
L 378.372228 113.25 
z
"/>
     <path d="M 336.105445 19.103125 
L 336.105445 25.353125 
L 484.944494 25.353125 
L 484.944494 19.103125 
L 336.105445 19.103125 
z
"/>
    </g>
   </g>
   <g id="text_2">
    <!-- 015 -->
    <g style="fill: #ff0000" transform="translate(33.64 600.673409) scale(0.24 -0.24)">
     <defs>
      <path id="DejaVuSans-30" d="M 2034 4250 
Q 1547 4250 1301 3770 
Q 1056 3291 1056 2328 
Q 1056 1369 1301 889 
Q 1547 409 2034 409 
Q 2525 409 2770 889 
Q 3016 1369 3016 2328 
Q 3016 3291 2770 3770 
Q 2525 4250 2034 4250 
z
M 2034 4750 
Q 2819 4750 3233 4129 
Q 3647 3509 3647 2328 
Q 3647 1150 3233 529 
Q 2819 -91 2034 -91 
Q 1250 -91 836 529 
Q 422 1150 422 2328 
Q 422 3509 836 4129 
Q 1250 4750 2034 4750 
z
" transform="scale(0.015625)"/>
     </defs>
     <use xlink:href="#DejaVuSans-30"/>
     <use xlink:href="#DejaVuSans-31" x="63.623047"/>
     <use xlink:href="#DejaVuSans-35" x="127.246094"/>
    </g>
   </g>
  </g>
 </g>
 <defs>
  <clipPath id="p1a16833b88">
   <rect x="322.769091" y="14.76" width="521.381818" height="521.381818"/>
  </clipPath>
 </defs>
</svg>
