<?xml version="1.0" encoding="utf-8" standalone="no"?>
<!DOCTYPE svg PUBLIC "-//W3C//DTD SVG 1.1//EN"
  "http://www.w3.org/Graphics/SVG/1.1/DTD/svg11.dtd">
<svg xmlns:xlink="http://www.w3.org/1999/xlink" width="1152pt" height="648pt" viewBox="0 0 1152 648" xmlns="http://www.w3.org/2000/svg" version="1.1">
 <metadata>
  <rdf:RDF xmlns:dc="http://purl.org/dc/elements/1.1/" xmlns:cc="http://creativecommons.org/ns#" xmlns:rdf="http://www.w3.org/1999/02/22-rdf-syntax-ns#">
   <cc:Work>
    <dc:type rdf:resource="http://purl.org/dc/dcmitype/StillImage"/>
    <dc:date>2023-02-24T17:58:02.522919</dc:date>
    <dc:format>image/svg+xml</dc:format>
    <dc:creator>
     <cc:Agent>
      <dc:title>Matplotlib v3.6.3, https://matplotlib.org/</dc:title>
     </cc:Agent>
    </dc:creator>
   </cc:Work>
  </rdf:RDF>
 </metadata>
 <defs>
  <style type="text/css">*{stroke-linejoin: round; stroke-linecap: butt}</style>
 </defs>
 <g id="figure_1">
  <g id="patch_1">
   <path d="M 0 648 
L 1152 648 
L 1152 0 
L 0 0 
z
"/>
  </g>
  <g id="axes_1">
   <g id="line2d_1">
    <defs>
     <path id="m3f20342160" d="M 0 3.5 
C 0.928211 3.5 1.81853 3.131218 2.474874 2.474874 
C 3.131218 1.81853 3.5 0.928211 3.5 0 
C 3.5 -0.928211 3.131218 -1.81853 2.474874 -2.474874 
C 1.81853 -3.131218 0.928211 -3.5 0 -3.5 
C -0.928211 -3.5 -1.81853 -3.131218 -2.474874 -2.474874 
C -3.131218 -1.81853 -3.5 -0.928211 -3.5 0 
C -3.5 0.928211 -3.131218 1.81853 -2.474874 2.474874 
C -1.81853 3.131218 -0.928211 3.5 0 3.5 
z
" style="stroke: #ffffff; stroke-opacity: 0.4"/>
    </defs>
    <g clip-path="url(#pa1272b1555)">
     <use xlink:href="#m3f20342160" x="491.823333" y="275.450909" style="fill: #ffffff; fill-opacity: 0.4; stroke: #ffffff; stroke-opacity: 0.4"/>
    </g>
   </g>
   <g id="line2d_2">
    <g clip-path="url(#pa1272b1555)">
     <use xlink:href="#m3f20342160" x="675.096667" y="275.450909" style="fill: #ffffff; fill-opacity: 0.4; stroke: #ffffff; stroke-opacity: 0.4"/>
    </g>
   </g>
   <g id="patch_2">
    <path d="M 491.823333 362.347879 
C 540.427989 362.347879 587.048468 353.191866 621.41715 336.896346 
C 655.785832 320.600825 675.096667 298.496255 675.096667 275.450909 
C 675.096667 252.405563 655.785832 230.300993 621.41715 214.005473 
C 587.048468 197.709952 540.427989 188.553939 491.823333 188.553939 
C 443.218677 188.553939 396.598198 197.709952 362.229517 214.005473 
C 327.860835 230.300993 308.55 252.405563 308.55 275.450909 
C 308.55 298.496255 327.860835 320.600825 362.229517 336.896346 
C 396.598198 353.191866 443.218677 362.347879 491.823333 362.347879 
L 491.823333 362.347879 
z
" clip-path="url(#pa1272b1555)" style="fill: none; stroke-dasharray: 1.5,2.475; stroke-dashoffset: 0; stroke: #cc0099; stroke-width: 1.5; stroke-linejoin: miter"/>
   </g>
   <g id="patch_3">
    <path d="M 675.096667 362.347879 
C 723.701323 362.347879 770.321802 353.191866 804.690483 336.896346 
C 839.059165 320.600825 858.37 298.496255 858.37 275.450909 
C 858.37 252.405563 839.059165 230.300993 804.690483 214.005473 
C 770.321802 197.709952 723.701323 188.553939 675.096667 188.553939 
C 626.492011 188.553939 579.871532 197.709952 545.50285 214.005473 
C 511.134168 230.300993 491.823333 252.405563 491.823333 275.450909 
C 491.823333 298.496255 511.134168 320.600825 545.50285 336.896346 
C 579.871532 353.191866 626.492011 362.347879 675.096667 362.347879 
L 675.096667 362.347879 
z
" clip-path="url(#pa1272b1555)" style="fill: none; stroke-dasharray: 1.5,2.475; stroke-dashoffset: 0; stroke: #cc0099; stroke-width: 1.5; stroke-linejoin: miter"/>
   </g>
   <g id="patch_4">
    <path d="M 491.823333 275.450909 
L 675.096667 275.450909 
L 583.46 350.705892 
z
" clip-path="url(#pa1272b1555)" style="fill: #3366cc; fill-opacity: 0.2; stroke: #3366cc; stroke-opacity: 0.6; stroke-linejoin: miter"/>
   </g>
   <g id="patch_5">
    <path d="M 491.823333 275.450909 
L 675.096667 275.450909 
L 583.46 200.195926 
z
" clip-path="url(#pa1272b1555)" style="fill: #3366cc; fill-opacity: 0.2; stroke: #3366cc; stroke-opacity: 0.6; stroke-linejoin: miter"/>
   </g>
   <g id="patch_6">
    <path d="M 491.823333 449.244848 
C 589.032646 449.244848 682.273603 430.932823 751.010967 398.341782 
C 819.748331 365.750742 858.37 321.541601 858.37 275.450909 
C 858.37 229.360218 819.748331 185.151077 751.010967 152.560036 
C 682.273603 119.968996 589.032646 101.65697 491.823333 101.65697 
C 394.614021 101.65697 301.373064 119.968996 232.6357 152.560036 
C 163.898336 185.151077 125.276667 229.360218 125.276667 275.450909 
C 125.276667 321.541601 163.898336 365.750742 232.6357 398.341782 
C 301.373064 430.932823 394.614021 449.244848 491.823333 449.244848 
L 491.823333 449.244848 
z
" clip-path="url(#pa1272b1555)" style="fill: none; stroke-dasharray: 1.5,2.475; stroke-dashoffset: 0; stroke: #cc0099; stroke-width: 1.5; stroke-linejoin: miter"/>
   </g>
   <g id="patch_7">
    <path d="M 675.096667 449.244848 
C 772.305979 449.244848 865.546936 430.932823 934.2843 398.341782 
C 1003.021664 365.750742 1041.643333 321.541601 1041.643333 275.450909 
C 1041.643333 229.360218 1003.021664 185.151077 934.2843 152.560036 
C 865.546936 119.968996 772.305979 101.65697 675.096667 101.65697 
C 577.887354 101.65697 484.646397 119.968996 415.909033 152.560036 
C 347.171669 185.151077 308.55 229.360218 308.55 275.450909 
C 308.55 321.541601 347.171669 365.750742 415.909033 398.341782 
C 484.646397 430.932823 577.887354 449.244848 675.096667 449.244848 
L 675.096667 449.244848 
z
" clip-path="url(#pa1272b1555)" style="fill: none; stroke-dasharray: 1.5,2.475; stroke-dashoffset: 0; stroke: #cc0099; stroke-width: 1.5; stroke-linejoin: miter"/>
   </g>
   <g id="patch_8">
    <path d="M 675.096667 449.244848 
C 772.305979 449.244848 865.546936 430.932823 934.2843 398.341782 
C 1003.021664 365.750742 1041.643333 321.541601 1041.643333 275.450909 
C 1041.643333 229.360218 1003.021664 185.151077 934.2843 152.560036 
C 865.546936 119.968996 772.305979 101.65697 675.096667 101.65697 
C 577.887354 101.65697 484.646397 119.968996 415.909033 152.560036 
C 347.171669 185.151077 308.55 229.360218 308.55 275.450909 
C 308.55 321.541601 347.171669 365.750742 415.909033 398.341782 
C 484.646397 430.932823 577.887354 449.244848 675.096667 449.244848 
L 675.096667 449.244848 
z
" clip-path="url(#pa1272b1555)" style="fill: none; stroke: #cc0099; stroke-width: 1.5; stroke-linejoin: miter"/>
   </g>
   <g id="line2d_3">
    <path d="M 33.64 275.450909 
L 1133.28 275.450909 
" clip-path="url(#pa1272b1555)" style="fill: none; stroke-dasharray: 1.5,2.475; stroke-dashoffset: 0; stroke: #999999; stroke-width: 1.5"/>
   </g>
   <g id="line2d_4">
    <path d="M 583.46 536.141818 
L 583.46 14.76 
" clip-path="url(#pa1272b1555)" style="fill: none; stroke-dasharray: 1.5,2.475; stroke-dashoffset: 0; stroke: #999999; stroke-width: 1.5"/>
   </g>
   <g id="line2d_5">
    <path d="M 675.096667 275.450909 
L 308.55 275.450909 
" clip-path="url(#pa1272b1555)" style="fill: none; stroke: #cc0099; stroke-width: 5; stroke-linecap: square"/>
   </g>
   <g id="line2d_6">
    <defs>
     <path id="m2dea69d5d4" d="M 0 7.5 
C 1.989023 7.5 3.896849 6.709753 5.303301 5.303301 
C 6.709753 3.896849 7.5 1.989023 7.5 0 
C 7.5 -1.989023 6.709753 -3.896849 5.303301 -5.303301 
C 3.896849 -6.709753 1.989023 -7.5 0 -7.5 
C -1.989023 -7.5 -3.896849 -6.709753 -5.303301 -5.303301 
C -6.709753 -3.896849 -7.5 -1.989023 -7.5 0 
C -7.5 1.989023 -6.709753 3.896849 -5.303301 5.303301 
C -3.896849 6.709753 -1.989023 7.5 0 7.5 
z
" style="stroke: #ffff00; stroke-opacity: 0.6"/>
    </defs>
    <g clip-path="url(#pa1272b1555)">
     <use xlink:href="#m2dea69d5d4" x="675.096667" y="275.450909" style="fill-opacity: 0; stroke: #ffff00; stroke-opacity: 0.6"/>
     <use xlink:href="#m2dea69d5d4" x="308.55" y="275.450909" style="fill-opacity: 0; stroke: #ffff00; stroke-opacity: 0.6"/>
    </g>
   </g>
   <g id="line2d_7">
    <defs>
     <path id="mc0a1e9294a" d="M 0 2 
C 0.530406 2 1.03916 1.789267 1.414214 1.414214 
C 1.789267 1.03916 2 0.530406 2 0 
C 2 -0.530406 1.789267 -1.03916 1.414214 -1.414214 
C 1.03916 -1.789267 0.530406 -2 0 -2 
C -0.530406 -2 -1.03916 -1.789267 -1.414214 -1.414214 
C -1.789267 -1.03916 -2 -0.530406 -2 0 
C -2 0.530406 -1.789267 1.03916 -1.414214 1.414214 
C -1.03916 1.789267 -0.530406 2 0 2 
z
" style="stroke: #000000"/>
    </defs>
    <g clip-path="url(#pa1272b1555)">
     <use xlink:href="#mc0a1e9294a" x="491.823333" y="275.450909" style="stroke: #000000"/>
    </g>
   </g>
   <g id="line2d_8">
    <g clip-path="url(#pa1272b1555)">
     <use xlink:href="#mc0a1e9294a" x="675.096667" y="275.450909" style="stroke: #000000"/>
    </g>
   </g>
   <g id="line2d_9">
    <g clip-path="url(#pa1272b1555)">
     <use xlink:href="#mc0a1e9294a" x="308.55" y="275.450909" style="stroke: #000000"/>
    </g>
   </g>
   <g id="line2d_10">
    <g clip-path="url(#pa1272b1555)">
     <use xlink:href="#mc0a1e9294a" x="858.37" y="275.450909" style="stroke: #000000"/>
    </g>
   </g>
   <g id="line2d_11">
    <g clip-path="url(#pa1272b1555)">
     <use xlink:href="#mc0a1e9294a" x="583.46" y="350.705892" style="stroke: #000000"/>
    </g>
   </g>
   <g id="line2d_12">
    <g clip-path="url(#pa1272b1555)">
     <use xlink:href="#mc0a1e9294a" x="583.46" y="200.195926" style="stroke: #000000"/>
    </g>
   </g>
   <g id="line2d_13">
    <g clip-path="url(#pa1272b1555)">
     <use xlink:href="#mc0a1e9294a" x="583.46" y="275.450909" style="stroke: #000000"/>
    </g>
   </g>
   <g id="line2d_14">
    <g clip-path="url(#pa1272b1555)">
     <use xlink:href="#mc0a1e9294a" x="125.276667" y="275.450909" style="stroke: #000000"/>
    </g>
   </g>
   <g id="line2d_15">
    <g clip-path="url(#pa1272b1555)">
     <use xlink:href="#mc0a1e9294a" x="583.46" y="443.726167" style="stroke: #000000"/>
    </g>
   </g>
   <g id="line2d_16">
    <g clip-path="url(#pa1272b1555)">
     <use xlink:href="#mc0a1e9294a" x="583.46" y="107.175651" style="stroke: #000000"/>
    </g>
   </g>
   <g id="line2d_17">
    <defs>
     <path id="meb6e2d5971" d="M 0 1.25 
C 0.331504 1.25 0.649475 1.118292 0.883883 0.883883 
C 1.118292 0.649475 1.25 0.331504 1.25 0 
C 1.25 -0.331504 1.118292 -0.649475 0.883883 -0.883883 
C 0.649475 -1.118292 0.331504 -1.25 0 -1.25 
C -0.331504 -1.25 -0.649475 -1.118292 -0.883883 -0.883883 
C -1.118292 -0.649475 -1.25 -0.331504 -1.25 0 
C -1.25 0.331504 -1.118292 0.649475 -0.883883 0.883883 
C -0.649475 1.118292 -0.331504 1.25 0 1.25 
z
" style="stroke: #ffffff"/>
    </defs>
    <g clip-path="url(#pa1272b1555)">
     <use xlink:href="#meb6e2d5971" x="491.823333" y="275.450909" style="fill: #ffffff; stroke: #ffffff"/>
    </g>
   </g>
   <g id="line2d_18">
    <g clip-path="url(#pa1272b1555)">
     <use xlink:href="#meb6e2d5971" x="675.096667" y="275.450909" style="fill: #ffffff; stroke: #ffffff"/>
    </g>
   </g>
   <g id="line2d_19">
    <g clip-path="url(#pa1272b1555)">
     <use xlink:href="#meb6e2d5971" x="308.55" y="275.450909" style="fill: #ffffff; stroke: #ffffff"/>
    </g>
   </g>
   <g id="line2d_20">
    <g clip-path="url(#pa1272b1555)">
     <use xlink:href="#meb6e2d5971" x="858.37" y="275.450909" style="fill: #ffffff; stroke: #ffffff"/>
    </g>
   </g>
   <g id="line2d_21">
    <g clip-path="url(#pa1272b1555)">
     <use xlink:href="#meb6e2d5971" x="583.46" y="350.705892" style="fill: #ffffff; stroke: #ffffff"/>
    </g>
   </g>
   <g id="line2d_22">
    <g clip-path="url(#pa1272b1555)">
     <use xlink:href="#meb6e2d5971" x="583.46" y="200.195926" style="fill: #ffffff; stroke: #ffffff"/>
    </g>
   </g>
   <g id="line2d_23">
    <g clip-path="url(#pa1272b1555)">
     <use xlink:href="#meb6e2d5971" x="583.46" y="275.450909" style="fill: #ffffff; stroke: #ffffff"/>
    </g>
   </g>
   <g id="line2d_24">
    <g clip-path="url(#pa1272b1555)">
     <use xlink:href="#meb6e2d5971" x="125.276667" y="275.450909" style="fill: #ffffff; stroke: #ffffff"/>
    </g>
   </g>
   <g id="line2d_25">
    <g clip-path="url(#pa1272b1555)">
     <use xlink:href="#meb6e2d5971" x="583.46" y="443.726167" style="fill: #ffffff; stroke: #ffffff"/>
    </g>
   </g>
   <g id="line2d_26">
    <g clip-path="url(#pa1272b1555)">
     <use xlink:href="#meb6e2d5971" x="583.46" y="107.175651" style="fill: #ffffff; stroke: #ffffff"/>
    </g>
   </g>
  </g>
  <g id="axes_2">
   <g id="text_1">
    <!-- $y^{2} + \left(x - 1\right)^{2} - 4 = 0$ -->
    <g style="fill: #ffffff" transform="translate(485.56 601.050909) scale(0.2 -0.2)">
     <defs>
      <path id="DejaVuSans-Oblique-79" d="M 1588 -325 
Q 1188 -997 936 -1164 
Q 684 -1331 294 -1331 
L -159 -1331 
L -63 -850 
L 269 -850 
Q 509 -850 678 -719 
Q 847 -588 1056 -206 
L 1234 128 
L 459 3500 
L 1069 3500 
L 1650 819 
L 3256 3500 
L 3859 3500 
L 1588 -325 
z
" transform="scale(0.015625)"/>
      <path id="DejaVuSans-32" d="M 1228 531 
L 3431 531 
L 3431 0 
L 469 0 
L 469 531 
Q 828 903 1448 1529 
Q 2069 2156 2228 2338 
Q 2531 2678 2651 2914 
Q 2772 3150 2772 3378 
Q 2772 3750 2511 3984 
Q 2250 4219 1831 4219 
Q 1534 4219 1204 4116 
Q 875 4013 500 3803 
L 500 4441 
Q 881 4594 1212 4672 
Q 1544 4750 1819 4750 
Q 2544 4750 2975 4387 
Q 3406 4025 3406 3419 
Q 3406 3131 3298 2873 
Q 3191 2616 2906 2266 
Q 2828 2175 2409 1742 
Q 1991 1309 1228 531 
z
" transform="scale(0.015625)"/>
      <path id="DejaVuSans-2b" d="M 2944 4013 
L 2944 2272 
L 4684 2272 
L 4684 1741 
L 2944 1741 
L 2944 0 
L 2419 0 
L 2419 1741 
L 678 1741 
L 678 2272 
L 2419 2272 
L 2419 4013 
L 2944 4013 
z
" transform="scale(0.015625)"/>
      <path id="DejaVuSans-28" d="M 1984 4856 
Q 1566 4138 1362 3434 
Q 1159 2731 1159 2009 
Q 1159 1288 1364 580 
Q 1569 -128 1984 -844 
L 1484 -844 
Q 1016 -109 783 600 
Q 550 1309 550 2009 
Q 550 2706 781 3412 
Q 1013 4119 1484 4856 
L 1984 4856 
z
" transform="scale(0.015625)"/>
      <path id="DejaVuSans-Oblique-78" d="M 3841 3500 
L 2234 1784 
L 3219 0 
L 2559 0 
L 1819 1388 
L 531 0 
L -166 0 
L 1556 1844 
L 641 3500 
L 1300 3500 
L 1972 2234 
L 3144 3500 
L 3841 3500 
z
" transform="scale(0.015625)"/>
      <path id="DejaVuSans-2212" d="M 678 2272 
L 4684 2272 
L 4684 1741 
L 678 1741 
L 678 2272 
z
" transform="scale(0.015625)"/>
      <path id="DejaVuSans-31" d="M 794 531 
L 1825 531 
L 1825 4091 
L 703 3866 
L 703 4441 
L 1819 4666 
L 2450 4666 
L 2450 531 
L 3481 531 
L 3481 0 
L 794 0 
L 794 531 
z
" transform="scale(0.015625)"/>
      <path id="DejaVuSans-29" d="M 513 4856 
L 1013 4856 
Q 1481 4119 1714 3412 
Q 1947 2706 1947 2009 
Q 1947 1309 1714 600 
Q 1481 -109 1013 -844 
L 513 -844 
Q 928 -128 1133 580 
Q 1338 1288 1338 2009 
Q 1338 2731 1133 3434 
Q 928 4138 513 4856 
z
" transform="scale(0.015625)"/>
      <path id="DejaVuSans-34" d="M 2419 4116 
L 825 1625 
L 2419 1625 
L 2419 4116 
z
M 2253 4666 
L 3047 4666 
L 3047 1625 
L 3713 1625 
L 3713 1100 
L 3047 1100 
L 3047 0 
L 2419 0 
L 2419 1100 
L 313 1100 
L 313 1709 
L 2253 4666 
z
" transform="scale(0.015625)"/>
      <path id="DejaVuSans-3d" d="M 678 2906 
L 4684 2906 
L 4684 2381 
L 678 2381 
L 678 2906 
z
M 678 1631 
L 4684 1631 
L 4684 1100 
L 678 1100 
L 678 1631 
z
" transform="scale(0.015625)"/>
      <path id="DejaVuSans-30" d="M 2034 4250 
Q 1547 4250 1301 3770 
Q 1056 3291 1056 2328 
Q 1056 1369 1301 889 
Q 1547 409 2034 409 
Q 2525 409 2770 889 
Q 3016 1369 3016 2328 
Q 3016 3291 2770 3770 
Q 2525 4250 2034 4250 
z
M 2034 4750 
Q 2819 4750 3233 4129 
Q 3647 3509 3647 2328 
Q 3647 1150 3233 529 
Q 2819 -91 2034 -91 
Q 1250 -91 836 529 
Q 422 1150 422 2328 
Q 422 3509 836 4129 
Q 1250 4750 2034 4750 
z
" transform="scale(0.015625)"/>
     </defs>
     <use xlink:href="#DejaVuSans-Oblique-79" transform="translate(0 0.765625)"/>
     <use xlink:href="#DejaVuSans-32" transform="translate(63.645833 39.046875) scale(0.7)"/>
     <use xlink:href="#DejaVuSans-2b" transform="translate(130.398763 0.765625)"/>
     <use xlink:href="#DejaVuSans-28" transform="translate(233.670247 0.765625)"/>
     <use xlink:href="#DejaVuSans-Oblique-78" transform="translate(272.683919 0.765625)"/>
     <use xlink:href="#DejaVuSans-2212" transform="translate(351.346029 0.765625)"/>
     <use xlink:href="#DejaVuSans-31" transform="translate(454.617513 0.765625)"/>
     <use xlink:href="#DejaVuSans-29" transform="translate(518.24056 0.765625)"/>
     <use xlink:href="#DejaVuSans-32" transform="translate(558.211263 39.046875) scale(0.7)"/>
     <use xlink:href="#DejaVuSans-2212" transform="translate(624.964193 0.765625)"/>
     <use xlink:href="#DejaVuSans-34" transform="translate(728.235677 0.765625)"/>
     <use xlink:href="#DejaVuSans-3d" transform="translate(811.341146 0.765625)"/>
     <use xlink:href="#DejaVuSans-30" transform="translate(914.61263 0.765625)"/>
    </g>
   </g>
   <g id="text_2">
    <!-- 017 -->
    <g style="fill: #ff0000" transform="translate(33.64 600.673409) scale(0.24 -0.24)">
     <defs>
      <path id="DejaVuSans-37" d="M 525 4666 
L 3525 4666 
L 3525 4397 
L 1831 0 
L 1172 0 
L 2766 4134 
L 525 4134 
L 525 4666 
z
" transform="scale(0.015625)"/>
     </defs>
     <use xlink:href="#DejaVuSans-30"/>
     <use xlink:href="#DejaVuSans-31" x="63.623047"/>
     <use xlink:href="#DejaVuSans-37" x="127.246094"/>
    </g>
   </g>
   <g id="text_3">
    <!-- $(B, C)$ -->
    <g style="fill: #ff0000" transform="translate(1068.96 600.673409) scale(0.24 -0.24)">
     <defs>
      <path id="DejaVuSans-Oblique-42" d="M 1081 4666 
L 2694 4666 
Q 3350 4666 3675 4422 
Q 4000 4178 4000 3688 
Q 4000 3238 3720 2911 
Q 3441 2584 2988 2516 
Q 3375 2428 3569 2181 
Q 3763 1934 3763 1522 
Q 3763 819 3242 409 
Q 2722 0 1819 0 
L 172 0 
L 1081 4666 
z
M 1234 2228 
L 903 519 
L 1919 519 
Q 2491 519 2800 781 
Q 3109 1044 3109 1522 
Q 3109 1891 2904 2059 
Q 2700 2228 2247 2228 
L 1234 2228 
z
M 1606 4147 
L 1331 2741 
L 2272 2741 
Q 2775 2741 3058 2959 
Q 3341 3178 3341 3566 
Q 3341 3869 3150 4008 
Q 2959 4147 2541 4147 
L 1606 4147 
z
" transform="scale(0.015625)"/>
      <path id="DejaVuSans-2c" d="M 750 794 
L 1409 794 
L 1409 256 
L 897 -744 
L 494 -744 
L 750 256 
L 750 794 
z
" transform="scale(0.015625)"/>
      <path id="DejaVuSans-Oblique-43" d="M 4447 4306 
L 4319 3641 
Q 4019 3944 3683 4091 
Q 3347 4238 2956 4238 
Q 2422 4238 2017 3981 
Q 1613 3725 1319 3200 
Q 1131 2863 1032 2486 
Q 934 2109 934 1728 
Q 934 1091 1264 756 
Q 1594 422 2222 422 
Q 2656 422 3056 561 
Q 3456 700 3834 978 
L 3688 231 
Q 3316 72 2936 -9 
Q 2556 -91 2175 -91 
Q 1278 -91 773 396 
Q 269 884 269 1753 
Q 269 2309 461 2846 
Q 653 3384 1013 3828 
Q 1394 4300 1883 4525 
Q 2372 4750 3022 4750 
Q 3422 4750 3780 4639 
Q 4138 4528 4447 4306 
z
" transform="scale(0.015625)"/>
     </defs>
     <use xlink:href="#DejaVuSans-28" transform="translate(0 0.125)"/>
     <use xlink:href="#DejaVuSans-Oblique-42" transform="translate(39.013672 0.125)"/>
     <use xlink:href="#DejaVuSans-2c" transform="translate(107.617188 0.125)"/>
     <use xlink:href="#DejaVuSans-Oblique-43" transform="translate(158.886719 0.125)"/>
     <use xlink:href="#DejaVuSans-29" transform="translate(228.710938 0.125)"/>
    </g>
   </g>
  </g>
 </g>
 <defs>
  <clipPath id="pa1272b1555">
   <rect x="33.64" y="14.76" width="1099.64" height="521.381818"/>
  </clipPath>
 </defs>
</svg>
