<?xml version="1.0" encoding="utf-8" standalone="no"?>
<!DOCTYPE svg PUBLIC "-//W3C//DTD SVG 1.1//EN"
  "http://www.w3.org/Graphics/SVG/1.1/DTD/svg11.dtd">
<svg xmlns:xlink="http://www.w3.org/1999/xlink" width="1152pt" height="648pt" viewBox="0 0 1152 648" xmlns="http://www.w3.org/2000/svg" version="1.1">
 <metadata>
  <rdf:RDF xmlns:dc="http://purl.org/dc/elements/1.1/" xmlns:cc="http://creativecommons.org/ns#" xmlns:rdf="http://www.w3.org/1999/02/22-rdf-syntax-ns#">
   <cc:Work>
    <dc:type rdf:resource="http://purl.org/dc/dcmitype/StillImage"/>
    <dc:date>2023-02-27T05:55:32.293418</dc:date>
    <dc:format>image/svg+xml</dc:format>
    <dc:creator>
     <cc:Agent>
      <dc:title>Matplotlib v3.6.3, https://matplotlib.org/</dc:title>
     </cc:Agent>
    </dc:creator>
   </cc:Work>
  </rdf:RDF>
 </metadata>
 <defs>
  <style type="text/css">*{stroke-linejoin: round; stroke-linecap: butt}</style>
 </defs>
 <g id="figure_1">
  <g id="patch_1">
   <path d="M 0 648 
L 1152 648 
L 1152 0 
L 0 0 
z
"/>
  </g>
  <g id="axes_1">
   <g id="line2d_1">
    <defs>
     <path id="m27665298f6" d="M 0 3.5 
C 0.928211 3.5 1.81853 3.131218 2.474874 2.474874 
C 3.131218 1.81853 3.5 0.928211 3.5 0 
C 3.5 -0.928211 3.131218 -1.81853 2.474874 -2.474874 
C 1.81853 -3.131218 0.928211 -3.5 0 -3.5 
C -0.928211 -3.5 -1.81853 -3.131218 -2.474874 -2.474874 
C -3.131218 -1.81853 -3.5 -0.928211 -3.5 0 
C -3.5 0.928211 -3.131218 1.81853 -2.474874 2.474874 
C -1.81853 3.131218 -0.928211 3.5 0 3.5 
z
" style="stroke: #ffffff; stroke-opacity: 0.4"/>
    </defs>
    <g clip-path="url(#p3777ce9e4c)">
     <use xlink:href="#m27665298f6" x="540.011515" y="275.450909" style="fill: #ffffff; fill-opacity: 0.4; stroke: #ffffff; stroke-opacity: 0.4"/>
    </g>
   </g>
   <g id="line2d_2">
    <g clip-path="url(#p3777ce9e4c)">
     <use xlink:href="#m27665298f6" x="626.908485" y="275.450909" style="fill: #ffffff; fill-opacity: 0.4; stroke: #ffffff; stroke-opacity: 0.4"/>
    </g>
   </g>
   <g id="patch_2">
    <path d="M 540.011515 362.347879 
C 563.056861 362.347879 585.161431 353.191866 601.456952 336.896346 
C 617.752472 320.600825 626.908485 298.496255 626.908485 275.450909 
C 626.908485 252.405563 617.752472 230.300993 601.456952 214.005473 
C 585.161431 197.709952 563.056861 188.553939 540.011515 188.553939 
C 516.966169 188.553939 494.861599 197.709952 478.566079 214.005473 
C 462.270558 230.300993 453.114545 252.405563 453.114545 275.450909 
C 453.114545 298.496255 462.270558 320.600825 478.566079 336.896346 
C 494.861599 353.191866 516.966169 362.347879 540.011515 362.347879 
L 540.011515 362.347879 
z
" clip-path="url(#p3777ce9e4c)" style="fill: none; stroke-dasharray: 1.5,2.475; stroke-dashoffset: 0; stroke: #cc0099; stroke-width: 1.5; stroke-linejoin: miter"/>
   </g>
   <g id="patch_3">
    <path d="M 626.908485 362.347879 
C 649.953831 362.347879 672.058401 353.191866 688.353921 336.896346 
C 704.649442 320.600825 713.805455 298.496255 713.805455 275.450909 
C 713.805455 252.405563 704.649442 230.300993 688.353921 214.005473 
C 672.058401 197.709952 649.953831 188.553939 626.908485 188.553939 
C 603.863139 188.553939 581.758569 197.709952 565.463048 214.005473 
C 549.167528 230.300993 540.011515 252.405563 540.011515 275.450909 
C 540.011515 298.496255 549.167528 320.600825 565.463048 336.896346 
C 581.758569 353.191866 603.863139 362.347879 626.908485 362.347879 
L 626.908485 362.347879 
z
" clip-path="url(#p3777ce9e4c)" style="fill: none; stroke-dasharray: 1.5,2.475; stroke-dashoffset: 0; stroke: #cc0099; stroke-width: 1.5; stroke-linejoin: miter"/>
   </g>
   <g id="patch_4">
    <path d="M 540.011515 275.450909 
L 626.908485 275.450909 
L 583.46 350.705892 
z
" clip-path="url(#p3777ce9e4c)" style="fill: #3366cc; fill-opacity: 0.2; stroke: #3366cc; stroke-opacity: 0.6; stroke-linejoin: miter"/>
   </g>
   <g id="patch_5">
    <path d="M 540.011515 275.450909 
L 626.908485 275.450909 
L 583.46 200.195926 
z
" clip-path="url(#p3777ce9e4c)" style="fill: #3366cc; fill-opacity: 0.2; stroke: #3366cc; stroke-opacity: 0.6; stroke-linejoin: miter"/>
   </g>
   <g id="patch_6">
    <path d="M 540.011515 449.244848 
C 586.102207 449.244848 630.311348 430.932823 662.902388 398.341782 
C 695.493429 365.750742 713.805455 321.541601 713.805455 275.450909 
C 713.805455 229.360218 695.493429 185.151077 662.902388 152.560036 
C 630.311348 119.968996 586.102207 101.65697 540.011515 101.65697 
C 493.920824 101.65697 449.711683 119.968996 417.120642 152.560036 
C 384.529602 185.151077 366.217576 229.360218 366.217576 275.450909 
C 366.217576 321.541601 384.529602 365.750742 417.120642 398.341782 
C 449.711683 430.932823 493.920824 449.244848 540.011515 449.244848 
L 540.011515 449.244848 
z
" clip-path="url(#p3777ce9e4c)" style="fill: none; stroke-dasharray: 1.5,2.475; stroke-dashoffset: 0; stroke: #cc0099; stroke-width: 1.5; stroke-linejoin: miter"/>
   </g>
   <g id="patch_7">
    <path d="M 540.011515 449.244848 
C 586.102207 449.244848 630.311348 430.932823 662.902388 398.341782 
C 695.493429 365.750742 713.805455 321.541601 713.805455 275.450909 
C 713.805455 229.360218 695.493429 185.151077 662.902388 152.560036 
C 630.311348 119.968996 586.102207 101.65697 540.011515 101.65697 
C 493.920824 101.65697 449.711683 119.968996 417.120642 152.560036 
C 384.529602 185.151077 366.217576 229.360218 366.217576 275.450909 
C 366.217576 321.541601 384.529602 365.750742 417.120642 398.341782 
C 449.711683 430.932823 493.920824 449.244848 540.011515 449.244848 
L 540.011515 449.244848 
z
" clip-path="url(#p3777ce9e4c)" style="fill: none; stroke: #cc0099; stroke-width: 1.5; stroke-linejoin: miter"/>
   </g>
   <g id="line2d_3">
    <path d="M 322.769091 275.450909 
L 844.150909 275.450909 
" clip-path="url(#p3777ce9e4c)" style="fill: none; stroke-dasharray: 1.5,2.475; stroke-dashoffset: 0; stroke: #999999; stroke-width: 1.5"/>
   </g>
   <g id="line2d_4">
    <path d="M 583.46 536.141818 
L 583.46 14.76 
" clip-path="url(#p3777ce9e4c)" style="fill: none; stroke-dasharray: 1.5,2.475; stroke-dashoffset: 0; stroke: #999999; stroke-width: 1.5"/>
   </g>
   <g id="line2d_5">
    <defs>
     <path id="mc6f6356e0e" d="M 0 7.5 
C 1.989023 7.5 3.896849 6.709753 5.303301 5.303301 
C 6.709753 3.896849 7.5 1.989023 7.5 0 
C 7.5 -1.989023 6.709753 -3.896849 5.303301 -5.303301 
C 3.896849 -6.709753 1.989023 -7.5 0 -7.5 
C -1.989023 -7.5 -3.896849 -6.709753 -5.303301 -5.303301 
C -6.709753 -3.896849 -7.5 -1.989023 -7.5 0 
C -7.5 1.989023 -6.709753 3.896849 -5.303301 5.303301 
C -3.896849 6.709753 -1.989023 7.5 0 7.5 
z
" style="stroke: #ffff00; stroke-opacity: 0.6"/>
    </defs>
    <g clip-path="url(#p3777ce9e4c)">
     <use xlink:href="#mc6f6356e0e" x="366.217576" y="275.450909" style="fill-opacity: 0; stroke: #ffff00; stroke-opacity: 0.6"/>
    </g>
   </g>
   <g id="line2d_6">
    <path d="M 322.769091 275.450909 
L 844.150909 275.450909 
" clip-path="url(#p3777ce9e4c)" style="fill: none; stroke: #999999; stroke-width: 1.5; stroke-linecap: square"/>
   </g>
   <g id="line2d_7">
    <defs>
     <path id="mfa4f5a7268" d="M 0 2 
C 0.530406 2 1.03916 1.789267 1.414214 1.414214 
C 1.789267 1.03916 2 0.530406 2 0 
C 2 -0.530406 1.789267 -1.03916 1.414214 -1.414214 
C 1.03916 -1.789267 0.530406 -2 0 -2 
C -0.530406 -2 -1.03916 -1.789267 -1.414214 -1.414214 
C -1.789267 -1.03916 -2 -0.530406 -2 0 
C -2 0.530406 -1.789267 1.03916 -1.414214 1.414214 
C -1.03916 1.789267 -0.530406 2 0 2 
z
" style="stroke: #000000"/>
    </defs>
    <g clip-path="url(#p3777ce9e4c)">
     <use xlink:href="#mfa4f5a7268" x="540.011515" y="275.450909" style="stroke: #000000"/>
    </g>
   </g>
   <g id="line2d_8">
    <g clip-path="url(#p3777ce9e4c)">
     <use xlink:href="#mfa4f5a7268" x="626.908485" y="275.450909" style="stroke: #000000"/>
    </g>
   </g>
   <g id="line2d_9">
    <g clip-path="url(#p3777ce9e4c)">
     <use xlink:href="#mfa4f5a7268" x="453.114545" y="275.450909" style="stroke: #000000"/>
    </g>
   </g>
   <g id="line2d_10">
    <g clip-path="url(#p3777ce9e4c)">
     <use xlink:href="#mfa4f5a7268" x="713.805455" y="275.450909" style="stroke: #000000"/>
    </g>
   </g>
   <g id="line2d_11">
    <g clip-path="url(#p3777ce9e4c)">
     <use xlink:href="#mfa4f5a7268" x="583.46" y="350.705892" style="stroke: #000000"/>
    </g>
   </g>
   <g id="line2d_12">
    <g clip-path="url(#p3777ce9e4c)">
     <use xlink:href="#mfa4f5a7268" x="583.46" y="200.195926" style="stroke: #000000"/>
    </g>
   </g>
   <g id="line2d_13">
    <g clip-path="url(#p3777ce9e4c)">
     <use xlink:href="#mfa4f5a7268" x="583.46" y="275.450909" style="stroke: #000000"/>
    </g>
   </g>
   <g id="line2d_14">
    <g clip-path="url(#p3777ce9e4c)">
     <use xlink:href="#mfa4f5a7268" x="366.217576" y="275.450909" style="stroke: #000000"/>
    </g>
   </g>
   <g id="line2d_15">
    <defs>
     <path id="m3f56bf0743" d="M 0 1.25 
C 0.331504 1.25 0.649475 1.118292 0.883883 0.883883 
C 1.118292 0.649475 1.25 0.331504 1.25 0 
C 1.25 -0.331504 1.118292 -0.649475 0.883883 -0.883883 
C 0.649475 -1.118292 0.331504 -1.25 0 -1.25 
C -0.331504 -1.25 -0.649475 -1.118292 -0.883883 -0.883883 
C -1.118292 -0.649475 -1.25 -0.331504 -1.25 0 
C -1.25 0.331504 -1.118292 0.649475 -0.883883 0.883883 
C -0.649475 1.118292 -0.331504 1.25 0 1.25 
z
" style="stroke: #ffffff"/>
    </defs>
    <g clip-path="url(#p3777ce9e4c)">
     <use xlink:href="#m3f56bf0743" x="540.011515" y="275.450909" style="fill: #ffffff; stroke: #ffffff"/>
    </g>
   </g>
   <g id="line2d_16">
    <g clip-path="url(#p3777ce9e4c)">
     <use xlink:href="#m3f56bf0743" x="626.908485" y="275.450909" style="fill: #ffffff; stroke: #ffffff"/>
    </g>
   </g>
   <g id="line2d_17">
    <g clip-path="url(#p3777ce9e4c)">
     <use xlink:href="#m3f56bf0743" x="453.114545" y="275.450909" style="fill: #ffffff; stroke: #ffffff"/>
    </g>
   </g>
   <g id="line2d_18">
    <g clip-path="url(#p3777ce9e4c)">
     <use xlink:href="#m3f56bf0743" x="713.805455" y="275.450909" style="fill: #ffffff; stroke: #ffffff"/>
    </g>
   </g>
   <g id="line2d_19">
    <g clip-path="url(#p3777ce9e4c)">
     <use xlink:href="#m3f56bf0743" x="583.46" y="350.705892" style="fill: #ffffff; stroke: #ffffff"/>
    </g>
   </g>
   <g id="line2d_20">
    <g clip-path="url(#p3777ce9e4c)">
     <use xlink:href="#m3f56bf0743" x="583.46" y="200.195926" style="fill: #ffffff; stroke: #ffffff"/>
    </g>
   </g>
   <g id="line2d_21">
    <g clip-path="url(#p3777ce9e4c)">
     <use xlink:href="#m3f56bf0743" x="583.46" y="275.450909" style="fill: #ffffff; stroke: #ffffff"/>
    </g>
   </g>
   <g id="line2d_22">
    <g clip-path="url(#p3777ce9e4c)">
     <use xlink:href="#m3f56bf0743" x="366.217576" y="275.450909" style="fill: #ffffff; stroke: #ffffff"/>
    </g>
   </g>
  </g>
  <g id="axes_2">
   <g id="text_1">
    <!-- $\left[ \ -2, \ 0 \ \right]$ -->
    <g style="fill: #ffffff" transform="translate(535.76 599.569659) scale(0.2 -0.2)">
     <defs>
      <path id="DejaVuSans-5b" d="M 550 4863 
L 1875 4863 
L 1875 4416 
L 1125 4416 
L 1125 -397 
L 1875 -397 
L 1875 -844 
L 550 -844 
L 550 4863 
z
" transform="scale(0.015625)"/>
      <path id="DejaVuSans-2212" d="M 678 2272 
L 4684 2272 
L 4684 1741 
L 678 1741 
L 678 2272 
z
" transform="scale(0.015625)"/>
      <path id="DejaVuSans-32" d="M 1228 531 
L 3431 531 
L 3431 0 
L 469 0 
L 469 531 
Q 828 903 1448 1529 
Q 2069 2156 2228 2338 
Q 2531 2678 2651 2914 
Q 2772 3150 2772 3378 
Q 2772 3750 2511 3984 
Q 2250 4219 1831 4219 
Q 1534 4219 1204 4116 
Q 875 4013 500 3803 
L 500 4441 
Q 881 4594 1212 4672 
Q 1544 4750 1819 4750 
Q 2544 4750 2975 4387 
Q 3406 4025 3406 3419 
Q 3406 3131 3298 2873 
Q 3191 2616 2906 2266 
Q 2828 2175 2409 1742 
Q 1991 1309 1228 531 
z
" transform="scale(0.015625)"/>
      <path id="DejaVuSans-2c" d="M 750 794 
L 1409 794 
L 1409 256 
L 897 -744 
L 494 -744 
L 750 256 
L 750 794 
z
" transform="scale(0.015625)"/>
      <path id="DejaVuSans-30" d="M 2034 4250 
Q 1547 4250 1301 3770 
Q 1056 3291 1056 2328 
Q 1056 1369 1301 889 
Q 1547 409 2034 409 
Q 2525 409 2770 889 
Q 3016 1369 3016 2328 
Q 3016 3291 2770 3770 
Q 2525 4250 2034 4250 
z
M 2034 4750 
Q 2819 4750 3233 4129 
Q 3647 3509 3647 2328 
Q 3647 1150 3233 529 
Q 2819 -91 2034 -91 
Q 1250 -91 836 529 
Q 422 1150 422 2328 
Q 422 3509 836 4129 
Q 1250 4750 2034 4750 
z
" transform="scale(0.015625)"/>
      <path id="DejaVuSans-5d" d="M 1947 4863 
L 1947 -844 
L 622 -844 
L 622 -397 
L 1369 -397 
L 1369 4416 
L 622 4416 
L 622 4863 
L 1947 4863 
z
" transform="scale(0.015625)"/>
     </defs>
     <use xlink:href="#DejaVuSans-5b" transform="translate(0 0.015625)"/>
     <use xlink:href="#DejaVuSans-2212" transform="translate(90.966472 0.015625)"/>
     <use xlink:href="#DejaVuSans-32" transform="translate(194.237957 0.015625)"/>
     <use xlink:href="#DejaVuSans-2c" transform="translate(257.861003 0.015625)"/>
     <use xlink:href="#DejaVuSans-30" transform="translate(341.600913 0.015625)"/>
     <use xlink:href="#DejaVuSans-5d" transform="translate(437.694338 0.015625)"/>
    </g>
   </g>
   <g id="text_2">
    <!-- 014 -->
    <g style="fill: #ff0000" transform="translate(33.64 600.673409) scale(0.24 -0.24)">
     <defs>
      <path id="DejaVuSans-31" d="M 794 531 
L 1825 531 
L 1825 4091 
L 703 3866 
L 703 4441 
L 1819 4666 
L 2450 4666 
L 2450 531 
L 3481 531 
L 3481 0 
L 794 0 
L 794 531 
z
" transform="scale(0.015625)"/>
      <path id="DejaVuSans-34" d="M 2419 4116 
L 825 1625 
L 2419 1625 
L 2419 4116 
z
M 2253 4666 
L 3047 4666 
L 3047 1625 
L 3713 1625 
L 3713 1100 
L 3047 1100 
L 3047 0 
L 2419 0 
L 2419 1100 
L 313 1100 
L 313 1709 
L 2253 4666 
z
" transform="scale(0.015625)"/>
     </defs>
     <use xlink:href="#DejaVuSans-30"/>
     <use xlink:href="#DejaVuSans-31" x="63.623047"/>
     <use xlink:href="#DejaVuSans-34" x="127.246094"/>
    </g>
   </g>
  </g>
 </g>
 <defs>
  <clipPath id="p3777ce9e4c">
   <rect x="322.769091" y="14.76" width="521.381818" height="521.381818"/>
  </clipPath>
 </defs>
</svg>
