<?xml version="1.0" encoding="utf-8" standalone="no"?>
<!DOCTYPE svg PUBLIC "-//W3C//DTD SVG 1.1//EN"
  "http://www.w3.org/Graphics/SVG/1.1/DTD/svg11.dtd">
<svg xmlns:xlink="http://www.w3.org/1999/xlink" width="1152pt" height="648pt" viewBox="0 0 1152 648" xmlns="http://www.w3.org/2000/svg" version="1.1">
 <metadata>
  <rdf:RDF xmlns:dc="http://purl.org/dc/elements/1.1/" xmlns:cc="http://creativecommons.org/ns#" xmlns:rdf="http://www.w3.org/1999/02/22-rdf-syntax-ns#">
   <cc:Work>
    <dc:type rdf:resource="http://purl.org/dc/dcmitype/StillImage"/>
    <dc:date>2023-02-24T17:58:02.964284</dc:date>
    <dc:format>image/svg+xml</dc:format>
    <dc:creator>
     <cc:Agent>
      <dc:title>Matplotlib v3.6.3, https://matplotlib.org/</dc:title>
     </cc:Agent>
    </dc:creator>
   </cc:Work>
  </rdf:RDF>
 </metadata>
 <defs>
  <style type="text/css">*{stroke-linejoin: round; stroke-linecap: butt}</style>
 </defs>
 <g id="figure_1">
  <g id="patch_1">
   <path d="M 0 648 
L 1152 648 
L 1152 0 
L 0 0 
z
"/>
  </g>
  <g id="axes_1">
   <g id="line2d_1">
    <defs>
     <path id="m851c152807" d="M 0 3.5 
C 0.928211 3.5 1.81853 3.131218 2.474874 2.474874 
C 3.131218 1.81853 3.5 0.928211 3.5 0 
C 3.5 -0.928211 3.131218 -1.81853 2.474874 -2.474874 
C 1.81853 -3.131218 0.928211 -3.5 0 -3.5 
C -0.928211 -3.5 -1.81853 -3.131218 -2.474874 -2.474874 
C -3.131218 -1.81853 -3.5 -0.928211 -3.5 0 
C -3.5 0.928211 -3.131218 1.81853 -2.474874 2.474874 
C -1.81853 3.131218 -0.928211 3.5 0 3.5 
z
" style="stroke: #ffffff; stroke-opacity: 0.4"/>
    </defs>
    <g clip-path="url(#pf60ed58e04)">
     <use xlink:href="#m851c152807" x="491.823333" y="275.450909" style="fill: #ffffff; fill-opacity: 0.4; stroke: #ffffff; stroke-opacity: 0.4"/>
    </g>
   </g>
   <g id="line2d_2">
    <g clip-path="url(#pf60ed58e04)">
     <use xlink:href="#m851c152807" x="675.096667" y="275.450909" style="fill: #ffffff; fill-opacity: 0.4; stroke: #ffffff; stroke-opacity: 0.4"/>
    </g>
   </g>
   <g id="patch_2">
    <path d="M 491.823333 362.347879 
C 540.427989 362.347879 587.048468 353.191866 621.41715 336.896346 
C 655.785832 320.600825 675.096667 298.496255 675.096667 275.450909 
C 675.096667 252.405563 655.785832 230.300993 621.41715 214.005473 
C 587.048468 197.709952 540.427989 188.553939 491.823333 188.553939 
C 443.218677 188.553939 396.598198 197.709952 362.229517 214.005473 
C 327.860835 230.300993 308.55 252.405563 308.55 275.450909 
C 308.55 298.496255 327.860835 320.600825 362.229517 336.896346 
C 396.598198 353.191866 443.218677 362.347879 491.823333 362.347879 
L 491.823333 362.347879 
z
" clip-path="url(#pf60ed58e04)" style="fill: none; stroke-dasharray: 1.5,2.475; stroke-dashoffset: 0; stroke: #cc0099; stroke-width: 1.5; stroke-linejoin: miter"/>
   </g>
   <g id="patch_3">
    <path d="M 675.096667 362.347879 
C 723.701323 362.347879 770.321802 353.191866 804.690483 336.896346 
C 839.059165 320.600825 858.37 298.496255 858.37 275.450909 
C 858.37 252.405563 839.059165 230.300993 804.690483 214.005473 
C 770.321802 197.709952 723.701323 188.553939 675.096667 188.553939 
C 626.492011 188.553939 579.871532 197.709952 545.50285 214.005473 
C 511.134168 230.300993 491.823333 252.405563 491.823333 275.450909 
C 491.823333 298.496255 511.134168 320.600825 545.50285 336.896346 
C 579.871532 353.191866 626.492011 362.347879 675.096667 362.347879 
L 675.096667 362.347879 
z
" clip-path="url(#pf60ed58e04)" style="fill: none; stroke-dasharray: 1.5,2.475; stroke-dashoffset: 0; stroke: #cc0099; stroke-width: 1.5; stroke-linejoin: miter"/>
   </g>
   <g id="patch_4">
    <path d="M 491.823333 275.450909 
L 675.096667 275.450909 
L 583.46 350.705892 
z
" clip-path="url(#pf60ed58e04)" style="fill: #3366cc; fill-opacity: 0.2; stroke: #3366cc; stroke-opacity: 0.6; stroke-linejoin: miter"/>
   </g>
   <g id="patch_5">
    <path d="M 491.823333 275.450909 
L 675.096667 275.450909 
L 583.46 200.195926 
z
" clip-path="url(#pf60ed58e04)" style="fill: #3366cc; fill-opacity: 0.2; stroke: #3366cc; stroke-opacity: 0.6; stroke-linejoin: miter"/>
   </g>
   <g id="patch_6">
    <path d="M 491.823333 449.244848 
C 589.032646 449.244848 682.273603 430.932823 751.010967 398.341782 
C 819.748331 365.750742 858.37 321.541601 858.37 275.450909 
C 858.37 229.360218 819.748331 185.151077 751.010967 152.560036 
C 682.273603 119.968996 589.032646 101.65697 491.823333 101.65697 
C 394.614021 101.65697 301.373064 119.968996 232.6357 152.560036 
C 163.898336 185.151077 125.276667 229.360218 125.276667 275.450909 
C 125.276667 321.541601 163.898336 365.750742 232.6357 398.341782 
C 301.373064 430.932823 394.614021 449.244848 491.823333 449.244848 
L 491.823333 449.244848 
z
" clip-path="url(#pf60ed58e04)" style="fill: none; stroke-dasharray: 1.5,2.475; stroke-dashoffset: 0; stroke: #cc0099; stroke-width: 1.5; stroke-linejoin: miter"/>
   </g>
   <g id="patch_7">
    <path d="M 675.096667 449.244848 
C 772.305979 449.244848 865.546936 430.932823 934.2843 398.341782 
C 1003.021664 365.750742 1041.643333 321.541601 1041.643333 275.450909 
C 1041.643333 229.360218 1003.021664 185.151077 934.2843 152.560036 
C 865.546936 119.968996 772.305979 101.65697 675.096667 101.65697 
C 577.887354 101.65697 484.646397 119.968996 415.909033 152.560036 
C 347.171669 185.151077 308.55 229.360218 308.55 275.450909 
C 308.55 321.541601 347.171669 365.750742 415.909033 398.341782 
C 484.646397 430.932823 577.887354 449.244848 675.096667 449.244848 
L 675.096667 449.244848 
z
" clip-path="url(#pf60ed58e04)" style="fill: none; stroke-dasharray: 1.5,2.475; stroke-dashoffset: 0; stroke: #cc0099; stroke-width: 1.5; stroke-linejoin: miter"/>
   </g>
   <g id="patch_8">
    <path d="M 675.096667 449.244848 
C 772.305979 449.244848 865.546936 430.932823 934.2843 398.341782 
C 1003.021664 365.750742 1041.643333 321.541601 1041.643333 275.450909 
C 1041.643333 229.360218 1003.021664 185.151077 934.2843 152.560036 
C 865.546936 119.968996 772.305979 101.65697 675.096667 101.65697 
C 577.887354 101.65697 484.646397 119.968996 415.909033 152.560036 
C 347.171669 185.151077 308.55 229.360218 308.55 275.450909 
C 308.55 321.541601 347.171669 365.750742 415.909033 398.341782 
C 484.646397 430.932823 577.887354 449.244848 675.096667 449.244848 
L 675.096667 449.244848 
z
" clip-path="url(#pf60ed58e04)" style="fill: none; stroke: #cc0099; stroke-width: 1.5; stroke-linejoin: miter"/>
   </g>
   <g id="line2d_3">
    <path d="M 33.64 275.450909 
L 1133.28 275.450909 
" clip-path="url(#pf60ed58e04)" style="fill: none; stroke-dasharray: 1.5,2.475; stroke-dashoffset: 0; stroke: #999999; stroke-width: 1.5"/>
   </g>
   <g id="line2d_4">
    <path d="M 583.46 536.141818 
L 583.46 14.76 
" clip-path="url(#pf60ed58e04)" style="fill: none; stroke-dasharray: 1.5,2.475; stroke-dashoffset: 0; stroke: #999999; stroke-width: 1.5"/>
   </g>
   <g id="line2d_5">
    <defs>
     <path id="md372d9402f" d="M 0 7.5 
C 1.989023 7.5 3.896849 6.709753 5.303301 5.303301 
C 6.709753 3.896849 7.5 1.989023 7.5 0 
C 7.5 -1.989023 6.709753 -3.896849 5.303301 -5.303301 
C 3.896849 -6.709753 1.989023 -7.5 0 -7.5 
C -1.989023 -7.5 -3.896849 -6.709753 -5.303301 -5.303301 
C -6.709753 -3.896849 -7.5 -1.989023 -7.5 0 
C -7.5 1.989023 -6.709753 3.896849 -5.303301 5.303301 
C -3.896849 6.709753 -1.989023 7.5 0 7.5 
z
" style="stroke: #ffff00; stroke-opacity: 0.6"/>
    </defs>
    <g clip-path="url(#pf60ed58e04)">
     <use xlink:href="#md372d9402f" x="1041.643333" y="275.450909" style="fill-opacity: 0; stroke: #ffff00; stroke-opacity: 0.6"/>
    </g>
   </g>
   <g id="line2d_6">
    <path d="M 33.64 275.450909 
L 1133.28 275.450909 
" clip-path="url(#pf60ed58e04)" style="fill: none; stroke: #999999; stroke-width: 1.5; stroke-linecap: square"/>
   </g>
   <g id="line2d_7">
    <defs>
     <path id="m1873e51a24" d="M 0 2 
C 0.530406 2 1.03916 1.789267 1.414214 1.414214 
C 1.789267 1.03916 2 0.530406 2 0 
C 2 -0.530406 1.789267 -1.03916 1.414214 -1.414214 
C 1.03916 -1.789267 0.530406 -2 0 -2 
C -0.530406 -2 -1.03916 -1.789267 -1.414214 -1.414214 
C -1.789267 -1.03916 -2 -0.530406 -2 0 
C -2 0.530406 -1.789267 1.03916 -1.414214 1.414214 
C -1.03916 1.789267 -0.530406 2 0 2 
z
" style="stroke: #000000"/>
    </defs>
    <g clip-path="url(#pf60ed58e04)">
     <use xlink:href="#m1873e51a24" x="491.823333" y="275.450909" style="stroke: #000000"/>
    </g>
   </g>
   <g id="line2d_8">
    <g clip-path="url(#pf60ed58e04)">
     <use xlink:href="#m1873e51a24" x="675.096667" y="275.450909" style="stroke: #000000"/>
    </g>
   </g>
   <g id="line2d_9">
    <g clip-path="url(#pf60ed58e04)">
     <use xlink:href="#m1873e51a24" x="308.55" y="275.450909" style="stroke: #000000"/>
    </g>
   </g>
   <g id="line2d_10">
    <g clip-path="url(#pf60ed58e04)">
     <use xlink:href="#m1873e51a24" x="858.37" y="275.450909" style="stroke: #000000"/>
    </g>
   </g>
   <g id="line2d_11">
    <g clip-path="url(#pf60ed58e04)">
     <use xlink:href="#m1873e51a24" x="583.46" y="350.705892" style="stroke: #000000"/>
    </g>
   </g>
   <g id="line2d_12">
    <g clip-path="url(#pf60ed58e04)">
     <use xlink:href="#m1873e51a24" x="583.46" y="200.195926" style="stroke: #000000"/>
    </g>
   </g>
   <g id="line2d_13">
    <g clip-path="url(#pf60ed58e04)">
     <use xlink:href="#m1873e51a24" x="583.46" y="275.450909" style="stroke: #000000"/>
    </g>
   </g>
   <g id="line2d_14">
    <g clip-path="url(#pf60ed58e04)">
     <use xlink:href="#m1873e51a24" x="125.276667" y="275.450909" style="stroke: #000000"/>
    </g>
   </g>
   <g id="line2d_15">
    <g clip-path="url(#pf60ed58e04)">
     <use xlink:href="#m1873e51a24" x="583.46" y="443.726167" style="stroke: #000000"/>
    </g>
   </g>
   <g id="line2d_16">
    <g clip-path="url(#pf60ed58e04)">
     <use xlink:href="#m1873e51a24" x="583.46" y="107.175651" style="stroke: #000000"/>
    </g>
   </g>
   <g id="line2d_17">
    <g clip-path="url(#pf60ed58e04)">
     <use xlink:href="#m1873e51a24" x="1041.643333" y="275.450909" style="stroke: #000000"/>
    </g>
   </g>
   <g id="line2d_18">
    <defs>
     <path id="m99b57287ad" d="M 0 1.25 
C 0.331504 1.25 0.649475 1.118292 0.883883 0.883883 
C 1.118292 0.649475 1.25 0.331504 1.25 0 
C 1.25 -0.331504 1.118292 -0.649475 0.883883 -0.883883 
C 0.649475 -1.118292 0.331504 -1.25 0 -1.25 
C -0.331504 -1.25 -0.649475 -1.118292 -0.883883 -0.883883 
C -1.118292 -0.649475 -1.25 -0.331504 -1.25 0 
C -1.25 0.331504 -1.118292 0.649475 -0.883883 0.883883 
C -0.649475 1.118292 -0.331504 1.25 0 1.25 
z
" style="stroke: #ffffff"/>
    </defs>
    <g clip-path="url(#pf60ed58e04)">
     <use xlink:href="#m99b57287ad" x="491.823333" y="275.450909" style="fill: #ffffff; stroke: #ffffff"/>
    </g>
   </g>
   <g id="line2d_19">
    <g clip-path="url(#pf60ed58e04)">
     <use xlink:href="#m99b57287ad" x="675.096667" y="275.450909" style="fill: #ffffff; stroke: #ffffff"/>
    </g>
   </g>
   <g id="line2d_20">
    <g clip-path="url(#pf60ed58e04)">
     <use xlink:href="#m99b57287ad" x="308.55" y="275.450909" style="fill: #ffffff; stroke: #ffffff"/>
    </g>
   </g>
   <g id="line2d_21">
    <g clip-path="url(#pf60ed58e04)">
     <use xlink:href="#m99b57287ad" x="858.37" y="275.450909" style="fill: #ffffff; stroke: #ffffff"/>
    </g>
   </g>
   <g id="line2d_22">
    <g clip-path="url(#pf60ed58e04)">
     <use xlink:href="#m99b57287ad" x="583.46" y="350.705892" style="fill: #ffffff; stroke: #ffffff"/>
    </g>
   </g>
   <g id="line2d_23">
    <g clip-path="url(#pf60ed58e04)">
     <use xlink:href="#m99b57287ad" x="583.46" y="200.195926" style="fill: #ffffff; stroke: #ffffff"/>
    </g>
   </g>
   <g id="line2d_24">
    <g clip-path="url(#pf60ed58e04)">
     <use xlink:href="#m99b57287ad" x="583.46" y="275.450909" style="fill: #ffffff; stroke: #ffffff"/>
    </g>
   </g>
   <g id="line2d_25">
    <g clip-path="url(#pf60ed58e04)">
     <use xlink:href="#m99b57287ad" x="125.276667" y="275.450909" style="fill: #ffffff; stroke: #ffffff"/>
    </g>
   </g>
   <g id="line2d_26">
    <g clip-path="url(#pf60ed58e04)">
     <use xlink:href="#m99b57287ad" x="583.46" y="443.726167" style="fill: #ffffff; stroke: #ffffff"/>
    </g>
   </g>
   <g id="line2d_27">
    <g clip-path="url(#pf60ed58e04)">
     <use xlink:href="#m99b57287ad" x="583.46" y="107.175651" style="fill: #ffffff; stroke: #ffffff"/>
    </g>
   </g>
   <g id="line2d_28">
    <g clip-path="url(#pf60ed58e04)">
     <use xlink:href="#m99b57287ad" x="1041.643333" y="275.450909" style="fill: #ffffff; stroke: #ffffff"/>
    </g>
   </g>
  </g>
  <g id="axes_2">
   <g id="text_1">
    <!-- $\left[ \ 3, \ 0 \ \right]$ -->
    <g style="fill: #ffffff" transform="translate(548.06 599.569659) scale(0.2 -0.2)">
     <defs>
      <path id="DejaVuSans-5b" d="M 550 4863 
L 1875 4863 
L 1875 4416 
L 1125 4416 
L 1125 -397 
L 1875 -397 
L 1875 -844 
L 550 -844 
L 550 4863 
z
" transform="scale(0.015625)"/>
      <path id="DejaVuSans-33" d="M 2597 2516 
Q 3050 2419 3304 2112 
Q 3559 1806 3559 1356 
Q 3559 666 3084 287 
Q 2609 -91 1734 -91 
Q 1441 -91 1130 -33 
Q 819 25 488 141 
L 488 750 
Q 750 597 1062 519 
Q 1375 441 1716 441 
Q 2309 441 2620 675 
Q 2931 909 2931 1356 
Q 2931 1769 2642 2001 
Q 2353 2234 1838 2234 
L 1294 2234 
L 1294 2753 
L 1863 2753 
Q 2328 2753 2575 2939 
Q 2822 3125 2822 3475 
Q 2822 3834 2567 4026 
Q 2313 4219 1838 4219 
Q 1578 4219 1281 4162 
Q 984 4106 628 3988 
L 628 4550 
Q 988 4650 1302 4700 
Q 1616 4750 1894 4750 
Q 2613 4750 3031 4423 
Q 3450 4097 3450 3541 
Q 3450 3153 3228 2886 
Q 3006 2619 2597 2516 
z
" transform="scale(0.015625)"/>
      <path id="DejaVuSans-2c" d="M 750 794 
L 1409 794 
L 1409 256 
L 897 -744 
L 494 -744 
L 750 256 
L 750 794 
z
" transform="scale(0.015625)"/>
      <path id="DejaVuSans-30" d="M 2034 4250 
Q 1547 4250 1301 3770 
Q 1056 3291 1056 2328 
Q 1056 1369 1301 889 
Q 1547 409 2034 409 
Q 2525 409 2770 889 
Q 3016 1369 3016 2328 
Q 3016 3291 2770 3770 
Q 2525 4250 2034 4250 
z
M 2034 4750 
Q 2819 4750 3233 4129 
Q 3647 3509 3647 2328 
Q 3647 1150 3233 529 
Q 2819 -91 2034 -91 
Q 1250 -91 836 529 
Q 422 1150 422 2328 
Q 422 3509 836 4129 
Q 1250 4750 2034 4750 
z
" transform="scale(0.015625)"/>
      <path id="DejaVuSans-5d" d="M 1947 4863 
L 1947 -844 
L 622 -844 
L 622 -397 
L 1369 -397 
L 1369 4416 
L 622 4416 
L 622 4863 
L 1947 4863 
z
" transform="scale(0.015625)"/>
     </defs>
     <use xlink:href="#DejaVuSans-5b" transform="translate(0 0.015625)"/>
     <use xlink:href="#DejaVuSans-33" transform="translate(71.48405 0.015625)"/>
     <use xlink:href="#DejaVuSans-2c" transform="translate(135.107097 0.015625)"/>
     <use xlink:href="#DejaVuSans-30" transform="translate(218.847007 0.015625)"/>
     <use xlink:href="#DejaVuSans-5d" transform="translate(314.940432 0.015625)"/>
    </g>
   </g>
   <g id="text_2">
    <!-- 018 -->
    <g style="fill: #ff0000" transform="translate(33.64 600.673409) scale(0.24 -0.24)">
     <defs>
      <path id="DejaVuSans-31" d="M 794 531 
L 1825 531 
L 1825 4091 
L 703 3866 
L 703 4441 
L 1819 4666 
L 2450 4666 
L 2450 531 
L 3481 531 
L 3481 0 
L 794 0 
L 794 531 
z
" transform="scale(0.015625)"/>
      <path id="DejaVuSans-38" d="M 2034 2216 
Q 1584 2216 1326 1975 
Q 1069 1734 1069 1313 
Q 1069 891 1326 650 
Q 1584 409 2034 409 
Q 2484 409 2743 651 
Q 3003 894 3003 1313 
Q 3003 1734 2745 1975 
Q 2488 2216 2034 2216 
z
M 1403 2484 
Q 997 2584 770 2862 
Q 544 3141 544 3541 
Q 544 4100 942 4425 
Q 1341 4750 2034 4750 
Q 2731 4750 3128 4425 
Q 3525 4100 3525 3541 
Q 3525 3141 3298 2862 
Q 3072 2584 2669 2484 
Q 3125 2378 3379 2068 
Q 3634 1759 3634 1313 
Q 3634 634 3220 271 
Q 2806 -91 2034 -91 
Q 1263 -91 848 271 
Q 434 634 434 1313 
Q 434 1759 690 2068 
Q 947 2378 1403 2484 
z
M 1172 3481 
Q 1172 3119 1398 2916 
Q 1625 2713 2034 2713 
Q 2441 2713 2670 2916 
Q 2900 3119 2900 3481 
Q 2900 3844 2670 4047 
Q 2441 4250 2034 4250 
Q 1625 4250 1398 4047 
Q 1172 3844 1172 3481 
z
" transform="scale(0.015625)"/>
     </defs>
     <use xlink:href="#DejaVuSans-30"/>
     <use xlink:href="#DejaVuSans-31" x="63.623047"/>
     <use xlink:href="#DejaVuSans-38" x="127.246094"/>
    </g>
   </g>
  </g>
 </g>
 <defs>
  <clipPath id="pf60ed58e04">
   <rect x="33.64" y="14.76" width="1099.64" height="521.381818"/>
  </clipPath>
 </defs>
</svg>
