<?xml version="1.0" encoding="utf-8" standalone="no"?>
<!DOCTYPE svg PUBLIC "-//W3C//DTD SVG 1.1//EN"
  "http://www.w3.org/Graphics/SVG/1.1/DTD/svg11.dtd">
<svg xmlns:xlink="http://www.w3.org/1999/xlink" width="1152pt" height="648pt" viewBox="0 0 1152 648" xmlns="http://www.w3.org/2000/svg" version="1.1">
 <metadata>
  <rdf:RDF xmlns:dc="http://purl.org/dc/elements/1.1/" xmlns:cc="http://creativecommons.org/ns#" xmlns:rdf="http://www.w3.org/1999/02/22-rdf-syntax-ns#">
   <cc:Work>
    <dc:type rdf:resource="http://purl.org/dc/dcmitype/StillImage"/>
    <dc:date>2023-02-27T05:55:34.910479</dc:date>
    <dc:format>image/svg+xml</dc:format>
    <dc:creator>
     <cc:Agent>
      <dc:title>Matplotlib v3.6.3, https://matplotlib.org/</dc:title>
     </cc:Agent>
    </dc:creator>
   </cc:Work>
  </rdf:RDF>
 </metadata>
 <defs>
  <style type="text/css">*{stroke-linejoin: round; stroke-linecap: butt}</style>
 </defs>
 <g id="figure_1">
  <g id="patch_1">
   <path d="M 0 648 
L 1152 648 
L 1152 0 
L 0 0 
z
"/>
  </g>
  <g id="axes_1">
   <g id="line2d_1">
    <defs>
     <path id="mc93a96db33" d="M 0 3.5 
C 0.928211 3.5 1.81853 3.131218 2.474874 2.474874 
C 3.131218 1.81853 3.5 0.928211 3.5 0 
C 3.5 -0.928211 3.131218 -1.81853 2.474874 -2.474874 
C 1.81853 -3.131218 0.928211 -3.5 0 -3.5 
C -0.928211 -3.5 -1.81853 -3.131218 -2.474874 -2.474874 
C -3.131218 -1.81853 -3.5 -0.928211 -3.5 0 
C -3.5 0.928211 -3.131218 1.81853 -2.474874 2.474874 
C -1.81853 3.131218 -0.928211 3.5 0 3.5 
z
" style="stroke: #ffffff; stroke-opacity: 0.4"/>
    </defs>
    <g clip-path="url(#p634d1206ac)">
     <use xlink:href="#mc93a96db33" x="540.011515" y="275.450909" style="fill: #ffffff; fill-opacity: 0.4; stroke: #ffffff; stroke-opacity: 0.4"/>
    </g>
   </g>
   <g id="line2d_2">
    <g clip-path="url(#p634d1206ac)">
     <use xlink:href="#mc93a96db33" x="626.908485" y="275.450909" style="fill: #ffffff; fill-opacity: 0.4; stroke: #ffffff; stroke-opacity: 0.4"/>
    </g>
   </g>
   <g id="patch_2">
    <path d="M 540.011515 362.347879 
C 563.056861 362.347879 585.161431 353.191866 601.456952 336.896346 
C 617.752472 320.600825 626.908485 298.496255 626.908485 275.450909 
C 626.908485 252.405563 617.752472 230.300993 601.456952 214.005473 
C 585.161431 197.709952 563.056861 188.553939 540.011515 188.553939 
C 516.966169 188.553939 494.861599 197.709952 478.566079 214.005473 
C 462.270558 230.300993 453.114545 252.405563 453.114545 275.450909 
C 453.114545 298.496255 462.270558 320.600825 478.566079 336.896346 
C 494.861599 353.191866 516.966169 362.347879 540.011515 362.347879 
L 540.011515 362.347879 
z
" clip-path="url(#p634d1206ac)" style="fill: none; stroke-dasharray: 1.5,2.475; stroke-dashoffset: 0; stroke: #cc0099; stroke-width: 1.5; stroke-linejoin: miter"/>
   </g>
   <g id="patch_3">
    <path d="M 626.908485 362.347879 
C 649.953831 362.347879 672.058401 353.191866 688.353921 336.896346 
C 704.649442 320.600825 713.805455 298.496255 713.805455 275.450909 
C 713.805455 252.405563 704.649442 230.300993 688.353921 214.005473 
C 672.058401 197.709952 649.953831 188.553939 626.908485 188.553939 
C 603.863139 188.553939 581.758569 197.709952 565.463048 214.005473 
C 549.167528 230.300993 540.011515 252.405563 540.011515 275.450909 
C 540.011515 298.496255 549.167528 320.600825 565.463048 336.896346 
C 581.758569 353.191866 603.863139 362.347879 626.908485 362.347879 
L 626.908485 362.347879 
z
" clip-path="url(#p634d1206ac)" style="fill: none; stroke-dasharray: 1.5,2.475; stroke-dashoffset: 0; stroke: #cc0099; stroke-width: 1.5; stroke-linejoin: miter"/>
   </g>
   <g id="patch_4">
    <path d="M 540.011515 275.450909 
L 626.908485 275.450909 
L 583.46 350.705892 
z
" clip-path="url(#p634d1206ac)" style="fill: #3366cc; fill-opacity: 0.2; stroke: #3366cc; stroke-opacity: 0.6; stroke-linejoin: miter"/>
   </g>
   <g id="patch_5">
    <path d="M 540.011515 275.450909 
L 626.908485 275.450909 
L 583.46 200.195926 
z
" clip-path="url(#p634d1206ac)" style="fill: #3366cc; fill-opacity: 0.2; stroke: #3366cc; stroke-opacity: 0.6; stroke-linejoin: miter"/>
   </g>
   <g id="patch_6">
    <path d="M 540.011515 449.244848 
C 586.102207 449.244848 630.311348 430.932823 662.902388 398.341782 
C 695.493429 365.750742 713.805455 321.541601 713.805455 275.450909 
C 713.805455 229.360218 695.493429 185.151077 662.902388 152.560036 
C 630.311348 119.968996 586.102207 101.65697 540.011515 101.65697 
C 493.920824 101.65697 449.711683 119.968996 417.120642 152.560036 
C 384.529602 185.151077 366.217576 229.360218 366.217576 275.450909 
C 366.217576 321.541601 384.529602 365.750742 417.120642 398.341782 
C 449.711683 430.932823 493.920824 449.244848 540.011515 449.244848 
L 540.011515 449.244848 
z
" clip-path="url(#p634d1206ac)" style="fill: none; stroke-dasharray: 1.5,2.475; stroke-dashoffset: 0; stroke: #cc0099; stroke-width: 1.5; stroke-linejoin: miter"/>
   </g>
   <g id="patch_7">
    <path d="M 626.908485 449.244848 
C 672.999176 449.244848 717.208317 430.932823 749.799358 398.341782 
C 782.390398 365.750742 800.702424 321.541601 800.702424 275.450909 
C 800.702424 229.360218 782.390398 185.151077 749.799358 152.560036 
C 717.208317 119.968996 672.999176 101.65697 626.908485 101.65697 
C 580.817793 101.65697 536.608652 119.968996 504.017612 152.560036 
C 471.426571 185.151077 453.114545 229.360218 453.114545 275.450909 
C 453.114545 321.541601 471.426571 365.750742 504.017612 398.341782 
C 536.608652 430.932823 580.817793 449.244848 626.908485 449.244848 
L 626.908485 449.244848 
z
" clip-path="url(#p634d1206ac)" style="fill: none; stroke-dasharray: 1.5,2.475; stroke-dashoffset: 0; stroke: #cc0099; stroke-width: 1.5; stroke-linejoin: miter"/>
   </g>
   <g id="line2d_3">
    <path d="M 322.769091 275.450909 
L 844.150909 275.450909 
" clip-path="url(#p634d1206ac)" style="fill: none; stroke-dasharray: 1.5,2.475; stroke-dashoffset: 0; stroke: #999999; stroke-width: 1.5"/>
   </g>
   <g id="line2d_4">
    <path d="M 583.46 536.141818 
L 583.46 14.76 
" clip-path="url(#p634d1206ac)" style="fill: none; stroke-dasharray: 1.5,2.475; stroke-dashoffset: 0; stroke: #999999; stroke-width: 1.5"/>
   </g>
   <g id="line2d_5">
    <defs>
     <path id="m4b77a209c1" d="M 0 2 
C 0.530406 2 1.03916 1.789267 1.414214 1.414214 
C 1.789267 1.03916 2 0.530406 2 0 
C 2 -0.530406 1.789267 -1.03916 1.414214 -1.414214 
C 1.03916 -1.789267 0.530406 -2 0 -2 
C -0.530406 -2 -1.03916 -1.789267 -1.414214 -1.414214 
C -1.789267 -1.03916 -2 -0.530406 -2 0 
C -2 0.530406 -1.789267 1.03916 -1.414214 1.414214 
C -1.03916 1.789267 -0.530406 2 0 2 
z
" style="stroke: #000000"/>
    </defs>
    <g clip-path="url(#p634d1206ac)">
     <use xlink:href="#m4b77a209c1" x="540.011515" y="275.450909" style="stroke: #000000"/>
    </g>
   </g>
   <g id="line2d_6">
    <g clip-path="url(#p634d1206ac)">
     <use xlink:href="#m4b77a209c1" x="626.908485" y="275.450909" style="stroke: #000000"/>
    </g>
   </g>
   <g id="line2d_7">
    <g clip-path="url(#p634d1206ac)">
     <use xlink:href="#m4b77a209c1" x="453.114545" y="275.450909" style="stroke: #000000"/>
    </g>
   </g>
   <g id="line2d_8">
    <g clip-path="url(#p634d1206ac)">
     <use xlink:href="#m4b77a209c1" x="713.805455" y="275.450909" style="stroke: #000000"/>
    </g>
   </g>
   <g id="line2d_9">
    <g clip-path="url(#p634d1206ac)">
     <use xlink:href="#m4b77a209c1" x="583.46" y="350.705892" style="stroke: #000000"/>
    </g>
   </g>
   <g id="line2d_10">
    <g clip-path="url(#p634d1206ac)">
     <use xlink:href="#m4b77a209c1" x="583.46" y="200.195926" style="stroke: #000000"/>
    </g>
   </g>
   <g id="line2d_11">
    <g clip-path="url(#p634d1206ac)">
     <use xlink:href="#m4b77a209c1" x="583.46" y="275.450909" style="stroke: #000000"/>
    </g>
   </g>
   <g id="line2d_12">
    <g clip-path="url(#p634d1206ac)">
     <use xlink:href="#m4b77a209c1" x="366.217576" y="275.450909" style="stroke: #000000"/>
    </g>
   </g>
   <g id="line2d_13">
    <g clip-path="url(#p634d1206ac)">
     <use xlink:href="#m4b77a209c1" x="583.46" y="443.726167" style="stroke: #000000"/>
    </g>
   </g>
   <g id="line2d_14">
    <g clip-path="url(#p634d1206ac)">
     <use xlink:href="#m4b77a209c1" x="583.46" y="107.175651" style="stroke: #000000"/>
    </g>
   </g>
   <g id="line2d_15">
    <g clip-path="url(#p634d1206ac)">
     <use xlink:href="#m4b77a209c1" x="800.702424" y="275.450909" style="stroke: #000000"/>
    </g>
   </g>
   <g id="line2d_16">
    <defs>
     <path id="m673c89ed48" d="M 0 1.25 
C 0.331504 1.25 0.649475 1.118292 0.883883 0.883883 
C 1.118292 0.649475 1.25 0.331504 1.25 0 
C 1.25 -0.331504 1.118292 -0.649475 0.883883 -0.883883 
C 0.649475 -1.118292 0.331504 -1.25 0 -1.25 
C -0.331504 -1.25 -0.649475 -1.118292 -0.883883 -0.883883 
C -1.118292 -0.649475 -1.25 -0.331504 -1.25 0 
C -1.25 0.331504 -1.118292 0.649475 -0.883883 0.883883 
C -0.649475 1.118292 -0.331504 1.25 0 1.25 
z
" style="stroke: #ffffff"/>
    </defs>
    <g clip-path="url(#p634d1206ac)">
     <use xlink:href="#m673c89ed48" x="540.011515" y="275.450909" style="fill: #ffffff; stroke: #ffffff"/>
    </g>
   </g>
   <g id="line2d_17">
    <g clip-path="url(#p634d1206ac)">
     <use xlink:href="#m673c89ed48" x="626.908485" y="275.450909" style="fill: #ffffff; stroke: #ffffff"/>
    </g>
   </g>
   <g id="line2d_18">
    <g clip-path="url(#p634d1206ac)">
     <use xlink:href="#m673c89ed48" x="453.114545" y="275.450909" style="fill: #ffffff; stroke: #ffffff"/>
    </g>
   </g>
   <g id="line2d_19">
    <g clip-path="url(#p634d1206ac)">
     <use xlink:href="#m673c89ed48" x="713.805455" y="275.450909" style="fill: #ffffff; stroke: #ffffff"/>
    </g>
   </g>
   <g id="line2d_20">
    <g clip-path="url(#p634d1206ac)">
     <use xlink:href="#m673c89ed48" x="583.46" y="350.705892" style="fill: #ffffff; stroke: #ffffff"/>
    </g>
   </g>
   <g id="line2d_21">
    <g clip-path="url(#p634d1206ac)">
     <use xlink:href="#m673c89ed48" x="583.46" y="200.195926" style="fill: #ffffff; stroke: #ffffff"/>
    </g>
   </g>
   <g id="line2d_22">
    <g clip-path="url(#p634d1206ac)">
     <use xlink:href="#m673c89ed48" x="583.46" y="275.450909" style="fill: #ffffff; stroke: #ffffff"/>
    </g>
   </g>
   <g id="line2d_23">
    <g clip-path="url(#p634d1206ac)">
     <use xlink:href="#m673c89ed48" x="366.217576" y="275.450909" style="fill: #ffffff; stroke: #ffffff"/>
    </g>
   </g>
   <g id="line2d_24">
    <g clip-path="url(#p634d1206ac)">
     <use xlink:href="#m673c89ed48" x="583.46" y="443.726167" style="fill: #ffffff; stroke: #ffffff"/>
    </g>
   </g>
   <g id="line2d_25">
    <g clip-path="url(#p634d1206ac)">
     <use xlink:href="#m673c89ed48" x="583.46" y="107.175651" style="fill: #ffffff; stroke: #ffffff"/>
    </g>
   </g>
   <g id="line2d_26">
    <g clip-path="url(#p634d1206ac)">
     <use xlink:href="#m673c89ed48" x="800.702424" y="275.450909" style="fill: #ffffff; stroke: #ffffff"/>
    </g>
   </g>
  </g>
  <g id="axes_2">
   <g id="text_1">
    <!-- elements: 19 | points: 11 -->
    <g style="fill: #ffffff" transform="translate(458.033437 599.335284) scale(0.2 -0.2)">
     <defs>
      <path id="DejaVuSans-65" d="M 3597 1894 
L 3597 1613 
L 953 1613 
Q 991 1019 1311 708 
Q 1631 397 2203 397 
Q 2534 397 2845 478 
Q 3156 559 3463 722 
L 3463 178 
Q 3153 47 2828 -22 
Q 2503 -91 2169 -91 
Q 1331 -91 842 396 
Q 353 884 353 1716 
Q 353 2575 817 3079 
Q 1281 3584 2069 3584 
Q 2775 3584 3186 3129 
Q 3597 2675 3597 1894 
z
M 3022 2063 
Q 3016 2534 2758 2815 
Q 2500 3097 2075 3097 
Q 1594 3097 1305 2825 
Q 1016 2553 972 2059 
L 3022 2063 
z
" transform="scale(0.015625)"/>
      <path id="DejaVuSans-6c" d="M 603 4863 
L 1178 4863 
L 1178 0 
L 603 0 
L 603 4863 
z
" transform="scale(0.015625)"/>
      <path id="DejaVuSans-6d" d="M 3328 2828 
Q 3544 3216 3844 3400 
Q 4144 3584 4550 3584 
Q 5097 3584 5394 3201 
Q 5691 2819 5691 2113 
L 5691 0 
L 5113 0 
L 5113 2094 
Q 5113 2597 4934 2840 
Q 4756 3084 4391 3084 
Q 3944 3084 3684 2787 
Q 3425 2491 3425 1978 
L 3425 0 
L 2847 0 
L 2847 2094 
Q 2847 2600 2669 2842 
Q 2491 3084 2119 3084 
Q 1678 3084 1418 2786 
Q 1159 2488 1159 1978 
L 1159 0 
L 581 0 
L 581 3500 
L 1159 3500 
L 1159 2956 
Q 1356 3278 1631 3431 
Q 1906 3584 2284 3584 
Q 2666 3584 2933 3390 
Q 3200 3197 3328 2828 
z
" transform="scale(0.015625)"/>
      <path id="DejaVuSans-6e" d="M 3513 2113 
L 3513 0 
L 2938 0 
L 2938 2094 
Q 2938 2591 2744 2837 
Q 2550 3084 2163 3084 
Q 1697 3084 1428 2787 
Q 1159 2491 1159 1978 
L 1159 0 
L 581 0 
L 581 3500 
L 1159 3500 
L 1159 2956 
Q 1366 3272 1645 3428 
Q 1925 3584 2291 3584 
Q 2894 3584 3203 3211 
Q 3513 2838 3513 2113 
z
" transform="scale(0.015625)"/>
      <path id="DejaVuSans-74" d="M 1172 4494 
L 1172 3500 
L 2356 3500 
L 2356 3053 
L 1172 3053 
L 1172 1153 
Q 1172 725 1289 603 
Q 1406 481 1766 481 
L 2356 481 
L 2356 0 
L 1766 0 
Q 1100 0 847 248 
Q 594 497 594 1153 
L 594 3053 
L 172 3053 
L 172 3500 
L 594 3500 
L 594 4494 
L 1172 4494 
z
" transform="scale(0.015625)"/>
      <path id="DejaVuSans-73" d="M 2834 3397 
L 2834 2853 
Q 2591 2978 2328 3040 
Q 2066 3103 1784 3103 
Q 1356 3103 1142 2972 
Q 928 2841 928 2578 
Q 928 2378 1081 2264 
Q 1234 2150 1697 2047 
L 1894 2003 
Q 2506 1872 2764 1633 
Q 3022 1394 3022 966 
Q 3022 478 2636 193 
Q 2250 -91 1575 -91 
Q 1294 -91 989 -36 
Q 684 19 347 128 
L 347 722 
Q 666 556 975 473 
Q 1284 391 1588 391 
Q 1994 391 2212 530 
Q 2431 669 2431 922 
Q 2431 1156 2273 1281 
Q 2116 1406 1581 1522 
L 1381 1569 
Q 847 1681 609 1914 
Q 372 2147 372 2553 
Q 372 3047 722 3315 
Q 1072 3584 1716 3584 
Q 2034 3584 2315 3537 
Q 2597 3491 2834 3397 
z
" transform="scale(0.015625)"/>
      <path id="DejaVuSans-3a" d="M 750 794 
L 1409 794 
L 1409 0 
L 750 0 
L 750 794 
z
M 750 3309 
L 1409 3309 
L 1409 2516 
L 750 2516 
L 750 3309 
z
" transform="scale(0.015625)"/>
      <path id="DejaVuSans-20" transform="scale(0.015625)"/>
      <path id="DejaVuSans-31" d="M 794 531 
L 1825 531 
L 1825 4091 
L 703 3866 
L 703 4441 
L 1819 4666 
L 2450 4666 
L 2450 531 
L 3481 531 
L 3481 0 
L 794 0 
L 794 531 
z
" transform="scale(0.015625)"/>
      <path id="DejaVuSans-39" d="M 703 97 
L 703 672 
Q 941 559 1184 500 
Q 1428 441 1663 441 
Q 2288 441 2617 861 
Q 2947 1281 2994 2138 
Q 2813 1869 2534 1725 
Q 2256 1581 1919 1581 
Q 1219 1581 811 2004 
Q 403 2428 403 3163 
Q 403 3881 828 4315 
Q 1253 4750 1959 4750 
Q 2769 4750 3195 4129 
Q 3622 3509 3622 2328 
Q 3622 1225 3098 567 
Q 2575 -91 1691 -91 
Q 1453 -91 1209 -44 
Q 966 3 703 97 
z
M 1959 2075 
Q 2384 2075 2632 2365 
Q 2881 2656 2881 3163 
Q 2881 3666 2632 3958 
Q 2384 4250 1959 4250 
Q 1534 4250 1286 3958 
Q 1038 3666 1038 3163 
Q 1038 2656 1286 2365 
Q 1534 2075 1959 2075 
z
" transform="scale(0.015625)"/>
      <path id="DejaVuSans-7c" d="M 1344 4891 
L 1344 -1509 
L 813 -1509 
L 813 4891 
L 1344 4891 
z
" transform="scale(0.015625)"/>
      <path id="DejaVuSans-70" d="M 1159 525 
L 1159 -1331 
L 581 -1331 
L 581 3500 
L 1159 3500 
L 1159 2969 
Q 1341 3281 1617 3432 
Q 1894 3584 2278 3584 
Q 2916 3584 3314 3078 
Q 3713 2572 3713 1747 
Q 3713 922 3314 415 
Q 2916 -91 2278 -91 
Q 1894 -91 1617 61 
Q 1341 213 1159 525 
z
M 3116 1747 
Q 3116 2381 2855 2742 
Q 2594 3103 2138 3103 
Q 1681 3103 1420 2742 
Q 1159 2381 1159 1747 
Q 1159 1113 1420 752 
Q 1681 391 2138 391 
Q 2594 391 2855 752 
Q 3116 1113 3116 1747 
z
" transform="scale(0.015625)"/>
      <path id="DejaVuSans-6f" d="M 1959 3097 
Q 1497 3097 1228 2736 
Q 959 2375 959 1747 
Q 959 1119 1226 758 
Q 1494 397 1959 397 
Q 2419 397 2687 759 
Q 2956 1122 2956 1747 
Q 2956 2369 2687 2733 
Q 2419 3097 1959 3097 
z
M 1959 3584 
Q 2709 3584 3137 3096 
Q 3566 2609 3566 1747 
Q 3566 888 3137 398 
Q 2709 -91 1959 -91 
Q 1206 -91 779 398 
Q 353 888 353 1747 
Q 353 2609 779 3096 
Q 1206 3584 1959 3584 
z
" transform="scale(0.015625)"/>
      <path id="DejaVuSans-69" d="M 603 3500 
L 1178 3500 
L 1178 0 
L 603 0 
L 603 3500 
z
M 603 4863 
L 1178 4863 
L 1178 4134 
L 603 4134 
L 603 4863 
z
" transform="scale(0.015625)"/>
     </defs>
     <use xlink:href="#DejaVuSans-65"/>
     <use xlink:href="#DejaVuSans-6c" x="61.523438"/>
     <use xlink:href="#DejaVuSans-65" x="89.306641"/>
     <use xlink:href="#DejaVuSans-6d" x="150.830078"/>
     <use xlink:href="#DejaVuSans-65" x="248.242188"/>
     <use xlink:href="#DejaVuSans-6e" x="309.765625"/>
     <use xlink:href="#DejaVuSans-74" x="373.144531"/>
     <use xlink:href="#DejaVuSans-73" x="412.353516"/>
     <use xlink:href="#DejaVuSans-3a" x="464.453125"/>
     <use xlink:href="#DejaVuSans-20" x="498.144531"/>
     <use xlink:href="#DejaVuSans-31" x="529.931641"/>
     <use xlink:href="#DejaVuSans-39" x="593.554688"/>
     <use xlink:href="#DejaVuSans-20" x="657.177734"/>
     <use xlink:href="#DejaVuSans-7c" x="688.964844"/>
     <use xlink:href="#DejaVuSans-20" x="722.65625"/>
     <use xlink:href="#DejaVuSans-70" x="754.443359"/>
     <use xlink:href="#DejaVuSans-6f" x="817.919922"/>
     <use xlink:href="#DejaVuSans-69" x="879.101562"/>
     <use xlink:href="#DejaVuSans-6e" x="906.884766"/>
     <use xlink:href="#DejaVuSans-74" x="970.263672"/>
     <use xlink:href="#DejaVuSans-73" x="1009.472656"/>
     <use xlink:href="#DejaVuSans-3a" x="1061.572266"/>
     <use xlink:href="#DejaVuSans-20" x="1095.263672"/>
     <use xlink:href="#DejaVuSans-31" x="1127.050781"/>
     <use xlink:href="#DejaVuSans-31" x="1190.673828"/>
    </g>
   </g>
  </g>
 </g>
 <defs>
  <clipPath id="p634d1206ac">
   <rect x="322.769091" y="14.76" width="521.381818" height="521.381818"/>
  </clipPath>
 </defs>
</svg>
